<svg id="Layer_1" data-name="Layer 1" xmlns="http://www.w3.org/2000/svg" width="136.562" height="72.077" viewBox="0 0 136.562 72.077">
  <path id="Path_3288" data-name="Path 3288" d="M38.813,53.391v5.435h.394A35.324,35.324,0,0,0,43,59.315a24.915,24.915,0,0,0,3.342,0,14.43,14.43,0,0,0,3.125-.6,8.519,8.519,0,0,0,3.207-1.59A6.4,6.4,0,0,0,54.56,54.41a7.541,7.541,0,0,0,0-5.435,6.263,6.263,0,0,0-1.712-2.351,7.051,7.051,0,0,0-2.486-1.454l-4.076-1.522a2.174,2.174,0,0,1-1.128-1.073,1.359,1.359,0,0,1,0-1.25,1.712,1.712,0,0,1,.272-.367,2.038,2.038,0,0,1,.448-.353l.177-.109a4.321,4.321,0,0,1,1.467-.421,8.152,8.152,0,0,1,2.622,0,21.331,21.331,0,0,1,3.043.543h.2V35.592L53,35.511a26.644,26.644,0,0,0-3.043-.476,15.639,15.639,0,0,0-4.076,0A8.777,8.777,0,0,0,41.2,36.924a6.141,6.141,0,0,0-2,2.717,7.581,7.581,0,0,0,0,5.109,5.747,5.747,0,0,0,1.44,2.174,8.22,8.22,0,0,0,1.861,1.359A13.016,13.016,0,0,0,45.335,49.4l.965.3.489.19h.136a3.519,3.519,0,0,1,1.291.788,2.31,2.31,0,0,1,.571.87,1.875,1.875,0,0,1,0,.91,1.957,1.957,0,0,1-.951,1.128,4.552,4.552,0,0,1-1.562.489,12.12,12.12,0,0,1-2.432.122,27.666,27.666,0,0,1-3.166-.421c-.543-.109-1.087-.245-1.63-.38h-.2" transform="translate(13.904 12.519)" fill="#c6092a"/>
  <path id="Path_3289" data-name="Path 3289" d="M27.155,58.634V52.316h-.122a11.562,11.562,0,0,1-4.565,1.155,6.671,6.671,0,0,1-4.579-1.359,5.829,5.829,0,0,1-2-2.84,6.712,6.712,0,0,1-.136-3.8,5.761,5.761,0,0,1,2.024-3.234,6.1,6.1,0,0,1,3.207-1.359,10.462,10.462,0,0,1,6.033,1.141h.136v-6.25l-.285-.082a16.223,16.223,0,0,0-5.761-.761,13.438,13.438,0,0,0-5.136,1.182,11.875,11.875,0,0,0-4.253,3.247,12.677,12.677,0,0,0-.231,15.408,12.092,12.092,0,0,0,6.7,4.307,15.72,15.72,0,0,0,8.478-.3l.462-.136" transform="translate(3.226 12.521)" fill="#c6092a"/>
  <path id="Path_3290" data-name="Path 3290" d="M34.408,58.943V35.22H28.43V58.943h5.978" transform="translate(10.198 12.633)" fill="#c6092a"/>
  <path id="Path_3293" data-name="Path 3293" d="M0,23.676a2.948,2.948,0,0,0,2.962,2.717A2.948,2.948,0,0,0,5.91,23.676V17.1a2.951,2.951,0,0,0-5-2.011A2.921,2.921,0,0,0,0,17.1v6.576" transform="translate(0 5.115)" fill="#0497cd"/>
  <path id="Path_3294" data-name="Path 3294" d="M12.05,25.831a2.973,2.973,0,0,0,5.924,0V11.089A2.962,2.962,0,0,0,12.96,9.079a2.921,2.921,0,0,0-.91,2.011V25.831" transform="translate(4.322 2.96)" fill="#0497cd"/>
  <path id="Path_3295" data-name="Path 3295" d="M24,34.728a2.966,2.966,0,0,0,5.91,0V2.84a2.957,2.957,0,0,0-5.91,0V34.728" transform="translate(8.609 0)" fill="#0497cd"/>
  <path id="Path_3296" data-name="Path 3296" d="M36.09,25.829a2.969,2.969,0,0,0,4.973,1.929,3.016,3.016,0,0,0,.951-1.957V11.087a3.043,3.043,0,0,0-.91-2.011,2.951,2.951,0,0,0-4.986,2.011V25.829" transform="translate(12.945 2.962)" fill="#0497cd"/>
  <path id="Path_3297" data-name="Path 3297" d="M48.09,23.676a2.969,2.969,0,0,0,4.973,1.929A3,3,0,0,0,54,23.649V17.1a2.958,2.958,0,0,0-5.91,0v6.576" transform="translate(17.25 5.115)" fill="#0497cd"/>
  <path id="Path_3298" data-name="Path 3298" d="M60.13,25.831a2.966,2.966,0,0,0,5.91,0V11.09a2.958,2.958,0,0,0-5.91,0V25.831" transform="translate(21.568 2.96)" fill="#0497cd"/>
  <path id="Path_3299" data-name="Path 3299" d="M72.12,34.728a2.973,2.973,0,0,0,5.924,0V2.839A2.962,2.962,0,0,0,73.03.829a2.921,2.921,0,0,0-.91,2.011V34.728" transform="translate(25.869 0.001)" fill="#0497cd"/>
  <path id="Path_3300" data-name="Path 3300" d="M84.15,25.829a3.016,3.016,0,0,0,.951,1.957,2.969,2.969,0,0,0,4.973-1.929V11.087a2.951,2.951,0,0,0-4.986-2.011,3.044,3.044,0,0,0-.91,2.011V25.829" transform="translate(30.184 2.962)" fill="#0497cd"/>
  <path id="Path_3301" data-name="Path 3301" d="M96.16,23.676a3,3,0,0,0,.937,1.957A2.969,2.969,0,0,0,102.07,23.7V17.1a2.958,2.958,0,0,0-5.91,0v6.576" transform="translate(34.492 5.115)" fill="#0497cd"/>
  <path id="Path_3302" data-name="Path 3302" d="M73.155,58.634V52.316h-.122a11.562,11.562,0,0,1-4.565,1.155,6.671,6.671,0,0,1-4.579-1.359,5.829,5.829,0,0,1-2-2.84,6.712,6.712,0,0,1-.136-3.8,5.761,5.761,0,0,1,2.024-3.234,6.1,6.1,0,0,1,3.207-1.359,10.462,10.462,0,0,1,6.033,1.141h.136v-6.25l-.285-.082a16.223,16.223,0,0,0-5.761-.761,13.438,13.438,0,0,0-5.136,1.182,11.875,11.875,0,0,0-4.253,3.247,12.677,12.677,0,0,0-.231,15.408,12.092,12.092,0,0,0,6.7,4.307,15.72,15.72,0,0,0,8.478-.3l.462-.136" transform="translate(19.726 12.521)" fill="#c6092a"/>
  <path id="Path_3303" data-name="Path 3303" d="M73,47.247a12.473,12.473,0,0,0,15.177,12,12.228,12.228,0,0,0,3.995-22.418A12.568,12.568,0,0,0,73,47.247m8.682-4.864a6.223,6.223,0,1,1-2.31,4.171,6.291,6.291,0,0,1,2.31-4.171" transform="translate(26.185 12.536)" fill="#c6092a"/>
</svg>
