<svg xmlns="http://www.w3.org/2000/svg" width="245.548" height="28.4" viewBox="0 0 245.548 28.4">
  <g id="Layer_2" data-name="Layer 2" transform="translate(0)">
    <g id="Layer_1" data-name="Layer 1" transform="translate(0)">
      <path id="Path_3318" data-name="Path 3318" d="M0,.19H30.622V6.405H6.835v4.688H27.31v5.973H6.82V27.954H0Z" transform="translate(0 0.097)" fill="#fff" fill-rule="evenodd"/>
      <path id="Path_3319" data-name="Path 3319" d="M42.718,0V7.077c0,.242-.106.363-.333.348H32.33c-.454,0-.59-.121-.59-.59V0Z" transform="translate(16.257)" fill="#cd3c2b" fill-rule="evenodd"/>
      <path id="Path_3320" data-name="Path 3320" d="M48.041,0a14.985,14.985,0,0,1,2.011,1.512,8.438,8.438,0,0,1,2.314,5.459c0,.393-.091.544-.5.544H41.584c-.408,0-.544-.136-.544-.56V.076Z" transform="translate(21.02)" fill="#cd3c2b" fill-rule="evenodd"/>
      <path id="Path_3321" data-name="Path 3321" d="M33.536,0V6.8c0,.469-.121.635-.6.62H22.724c-.227,0-.439,0-.484-.318A8.151,8.151,0,0,1,26.081.3l.65-.3Z" transform="translate(11.391)" fill="#cd3c2b" fill-rule="evenodd"/>
      <path id="Path_3323" data-name="Path 3323" d="M80.652,15.756a3.236,3.236,0,0,1,1.86,3.024c.076,3.024,0,6.049,0,8.952v.227H75.979V18.886c0-1.119-.439-1.6-1.512-1.679H58.635V28.1H51.86V.211H73.439a16.014,16.014,0,0,1,4.34.529,6.049,6.049,0,0,1,4.794,5.277,35.671,35.671,0,0,1,.151,5.686,5.656,5.656,0,0,1-1.8,3.659l-.3.3A.084.084,0,0,1,80.652,15.756Zm-22-4.673h14.4a14.608,14.608,0,0,0,1.815-.106,1.331,1.331,0,0,0,1.21-1.316q0-.93,0-1.86a1.331,1.331,0,0,0-1.119-1.316A5.2,5.2,0,0,0,73.862,6.4H58.65Z" transform="translate(26.562 0.107)" fill="#fff" fill-rule="evenodd"/>
      <path id="Path_3324" data-name="Path 3324" d="M125.28,27.948V.23H152.5V6.369H132.07v4.718H146.3V17.06H132.055v4.718h20.626v6.17Z" transform="translate(64.166 0.118)" fill="#fff" fill-rule="evenodd"/>
      <path id="Path_3325" data-name="Path 3325" d="M108.39,6.41V27.959H101.6V.21h21.942a10.222,10.222,0,0,1,4.7,1.089,7.682,7.682,0,0,1,4.068,5.716,16.634,16.634,0,0,1,.333,3.357V27.959H125.87V9.525a7.562,7.562,0,0,0-.212-1.754,1.83,1.83,0,0,0-1.618-1.361,2.934,2.934,0,0,0-.514,0H108.39Z" transform="translate(52.037 0.107)" fill="#fff" fill-rule="evenodd"/>
      <path id="Path_3326" data-name="Path 3326" d="M81.081,6.4H74.7V.22h25.4V6.39H87.886V27.953h-6.8Z" transform="translate(38.26 0.113)" fill="#fff" fill-rule="evenodd"/>
      <path id="Path_3327" data-name="Path 3327" d="M145.56,6.4V.23h25.435V6.385H158.761V27.948h-6.79V6.4Z" transform="translate(74.553 0.118)" fill="#fff" fill-rule="evenodd"/>
      <path id="Path_3328" data-name="Path 3328" d="M100.5,27.948H93.76V.23H100.5Z" transform="translate(48.022 0.118)" fill="#fff" fill-rule="evenodd"/>
      <path id="Path_3329" data-name="Path 3329" d="M46.7,14.345H41.589c-.393,0-.529-.091-.529-.5V7.389c0-.363.091-.469.454-.469H51.948c.3,0,.423.106.423.408v6.593c0,.348-.151.423-.469.423Z" transform="translate(21.03 3.544)" fill="#cd3c2b" fill-rule="evenodd"/>
      <path id="Path_3330" data-name="Path 3330" d="M33.491,6.96v7.364H22.8c-.454,0-.56-.136-.56-.575V7.384c0-.363.091-.484.484-.484H33.067Z" transform="translate(11.391 3.534)" fill="#cd3c2b" fill-rule="evenodd"/>
      <path id="Path_3331" data-name="Path 3331" d="M31.76,21.189V13.9H42.239c.439,0,.529.136.529.544v6.321c0,.3,0,.514-.423.514H32Z" transform="translate(16.267 7.119)" fill="#cd3c2b" fill-rule="evenodd"/>
      <path id="Path_3332" data-name="Path 3332" d="M41.09,21.234V13.9H51.842c.423,0,.575.136.529.544A8,8,0,0,1,48.863,20.9a2.374,2.374,0,0,1-1.361.378H41.619Z" transform="translate(21.045 7.119)" fill="#cd3c2b" fill-rule="evenodd"/>
      <path id="Path_3333" data-name="Path 3333" d="M33.516,13.92v7.289H27.6a3.765,3.765,0,0,1-3.024-1.285,8.529,8.529,0,0,1-2.268-4.748,5.019,5.019,0,0,0-.121-1.316Z" transform="translate(11.365 7.099)" fill="#cd3c2b" fill-rule="evenodd"/>
    </g>
  </g>
</svg>
