<svg xmlns="http://www.w3.org/2000/svg" width="87.99" height="88.203" viewBox="0 0 87.99 88.203">
  <g id="G" transform="translate(1.002 1.219)" style="isolation: isolate">
    <path id="Path_2414" data-name="Path 2414" d="M21.491,86.679A36.185,36.185,0,0,1,27.55,66.62l1.5-2.275L24.4,61.44l-1.5,2.275a41.47,41.47,0,0,0,.129,46.129l1.508,2.241,4.633-2.927-1.508-2.252a36.187,36.187,0,0,1-6.172-20.226Z" transform="translate(-15.96 -43.687)" fill="#418dcb" stroke="#418dcb" stroke-width="2"/>
    <path id="Path_2415" data-name="Path 2415" d="M84.621,24.167a38.347,38.347,0,0,1,31.918,1.684l2.449,1.289,2.574-4.891-2.445-1.289a43.879,43.879,0,0,0-36.543-1.934L80,20.057l2.047,5.137Z" transform="translate(-55.815 -15.96)" fill="#418dcb" stroke="#418dcb" stroke-width="2"/>
    <path id="Path_2416" data-name="Path 2416" d="M48.931,96.58a27.383,27.383,0,0,1,4.344-14.844l1.5-2.344L50.119,76.44l-1.5,2.344a33,33,0,0,0,.133,35.836l1.52,2.3,4.633-3.023L53.4,111.58A27.363,27.363,0,0,1,48.931,96.58Z" transform="translate(-32.681 -53.594)" fill="#418dcb" stroke="#418dcb" stroke-width="2"/>
    <path id="Path_2417" data-name="Path 2417" d="M74.468,117.876l1.512,2.312,4.629-3.027-1.5-2.312A16.762,16.762,0,0,1,79,96.685l1.488-2.344L75.816,91.38l-1.488,2.344a22.3,22.3,0,0,0,.141,24.168Z" transform="translate(-49.823 -62.697)" fill="#418dcb" stroke="#418dcb" stroke-width="2"/>
    <path id="Path_2418" data-name="Path 2418" d="M135.631,118.088H101.1a4.687,4.687,0,1,0,.156,5.531h34.262a38.254,38.254,0,0,1-53.039,32.453l-2.547-1.078-2.156,5.078,2.543,1.078a43.781,43.781,0,0,0,60.742-37.543l.082-2.754v-2.766Z" transform="translate(-55.158 -78.626)" fill="#418dcb" stroke="#418dcb" stroke-width="2"/>
  </g>
</svg>
