<svg id="instagram" xmlns="http://www.w3.org/2000/svg" width="24" height="24" viewBox="0 0 24 24">
  <path id="Path_2419" data-name="Path 2419" d="M16.08,6.2c3.2,0,3.584.012,4.849.07a6.643,6.643,0,0,1,2.228.413,3.97,3.97,0,0,1,2.279,2.279,6.641,6.641,0,0,1,.413,2.228c.058,1.266.07,1.645.07,4.849s-.012,3.583-.07,4.849a6.641,6.641,0,0,1-.413,2.228A3.978,3.978,0,0,1,23.16,25.4a6.643,6.643,0,0,1-2.228.413c-1.265.058-1.645.07-4.849.07s-3.584-.012-4.849-.07A6.643,6.643,0,0,1,9,25.4a3.97,3.97,0,0,1-2.279-2.279,6.641,6.641,0,0,1-.413-2.228c-.058-1.266-.07-1.645-.07-4.849s.012-3.583.07-4.849a6.641,6.641,0,0,1,.413-2.228A3.97,3.97,0,0,1,9,6.685a6.643,6.643,0,0,1,2.228-.413c1.266-.058,1.645-.07,4.849-.07m0-2.162c-3.259,0-3.668.014-4.948.072a8.807,8.807,0,0,0-2.914.559A6.134,6.134,0,0,0,4.71,8.182a8.807,8.807,0,0,0-.557,2.913c-.058,1.277-.072,1.688-.072,4.946s.014,3.668.072,4.947A8.8,8.8,0,0,0,4.71,23.9,6.138,6.138,0,0,0,8.22,27.41a8.8,8.8,0,0,0,2.913.558c1.277.058,1.689.072,4.948.072s3.668-.014,4.948-.072a8.78,8.78,0,0,0,2.911-.558,6.132,6.132,0,0,0,3.51-3.51,8.794,8.794,0,0,0,.558-2.913c.058-1.277.072-1.688.072-4.947s-.014-3.668-.072-4.947a8.778,8.778,0,0,0-.558-2.911,6.138,6.138,0,0,0-3.51-3.51,8.809,8.809,0,0,0-2.913-.557c-1.277-.058-1.688-.072-4.947-.072Z" transform="translate(-4.08 -4.04)" fill="#fff"/>
  <path id="Path_2420" data-name="Path 2420" d="M132.8,126.64a6.161,6.161,0,1,0,6.162,6.161,6.162,6.162,0,0,0-6.162-6.161Zm0,10.161a4,4,0,1,1,4-4A4,4,0,0,1,132.8,136.8Z" transform="translate(-120.802 -120.8)" fill="#fff"/>
  <ellipse id="Ellipse_35" data-name="Ellipse 35" cx="1.44" cy="1.44" rx="1.44" ry="1.44" transform="translate(16.966 4.156)" fill="#fff"/>
</svg>
