<svg xmlns="http://www.w3.org/2000/svg" width="23.001" height="23.002" viewBox="0 0 23.001 23.002">
  <path id="phone" d="M22.111,16.974v3.011a2.01,2.01,0,0,1-2.192,2.007,19.926,19.926,0,0,1-8.678-3.081,19.59,19.59,0,0,1-6.034-6.022,19.836,19.836,0,0,1-3.087-8.7A2.009,2.009,0,0,1,4.121,2H7.138A2.01,2.01,0,0,1,9.149,3.726a12.865,12.865,0,0,0,.7,2.82A2,2,0,0,1,9.4,8.664L8.123,9.938a16.074,16.074,0,0,0,6.034,6.022l1.277-1.275a2.014,2.014,0,0,1,2.122-.452,12.933,12.933,0,0,0,2.826.7,2.008,2.008,0,0,1,1.73,2.037Z" transform="translate(-0.612 -0.5)" fill="none" stroke="#fff" stroke-linecap="round" stroke-linejoin="round" stroke-width="3"/>
</svg>
