<svg xmlns="http://www.w3.org/2000/svg" viewBox="0 0 855.85 348.86"><defs><style>.cls-1{fill:#cc2948;}.cls-2{fill:#fff;}</style></defs><g id="Layer_1" data-name="Layer 1"><path class="cls-1" d="M616.87,292.26a7.34,7.34,0,0,0-6.55-4,14.56,14.56,0,0,0-7.34,2.56q-23.29,15.32-47.87,33.83l8.29-51.39q8.29-46.92,8.31-54.9c0-3-1-5.1-2.88-6.38s-5.32-1.92-10.21-1.92q-10.53,0-15.8,4.15T535,228q-7.66,28.41-15.8,47.88t-15.32,29q-7.19,9.57-12,9.58-6.71,0-6.7-12.13a130,130,0,0,1,1.91-19.63q1.92-12,4.47-25.06,1.92-9.57,5.11-21.38,3.51-14.69,3.51-17.24,0-4.47-2.72-6.7t-9.73-2.24q-12.45,0-18.19,4.15T460.63,228a273.7,273.7,0,0,0-10.53,42.29,259.3,259.3,0,0,0-3,31.25,192.08,192.08,0,0,1-15.4,16q-8.79,7.83-15.17,7.82-9.25,0-9.25-12.77,0-8.92,6.06-36.7,7-32.56,7-45,0-20.74-20.75-20.75-16.92,0-36.39,17.88t-35.43,57.13q1-5.74,3.51-17.24,6.06-26.8,6.07-37,0-10.53-4.63-15.64T317,210.07q-11.17,0-23.78,8.46t-24.58,25.7q-12,17.24-20.58,42.13a217.76,217.76,0,0,1,3.19-23.46q1.91-9.42,5.11-22.19,4.78-17.86,4.78-23,0-4.46-2.55-6.06c-1.71-1.06-4.68-1.6-8.94-1.6q-11.81,0-18.35,4.31T221.88,228a260,260,0,0,0-11.81,78.84q0,28.08,5,40.85t17.08,12.77q9.89,0,14.52-5.27t8.14-20.27a280.87,280.87,0,0,1,11-35.11Q272.64,281.9,280,270.4t12.12-11.49q3.51,0,3.51,5.11,0,6.38-2.55,26.81-3.19,23-3.19,35.11,0,14.35,5.27,24.41t15.8,10.06q10.2,0,14.84-5.11t8.14-20.43a229.91,229.91,0,0,1,12.44-37Q354,280.3,361.69,269.6t11.81-10.69c2.33,0,3.51,1.7,3.51,5.11q0,7.65-4.15,27.76-4.47,23-4.47,31.92,0,17.88,8.3,27.29t24.58,9.42a61.93,61.93,0,0,0,35.9-10.85,128.07,128.07,0,0,0,14.08-11.32,47.23,47.23,0,0,0,4.75,8.92q9.11,13.24,23.46,13.25,12.77,0,24.26-12t17.87-34.95q-2.87,22-5.1,33.83l-1,7.34q-34.15,26.18-52.82,46.44T437.17,437a75.84,75.84,0,0,0-6.86,30.64q0,16.28,10.21,26.34T467,504q30.33,0,50-37.82t31.76-103.89L610,321.15a20.84,20.84,0,0,0,7-7.34q2.22-4.15,2.23-11.49A19.29,19.29,0,0,0,616.87,292.26ZM488.4,454.57q-9.9,18.49-17.88,18.51c-3.19,0-5.48-1.18-6.86-3.51a17.42,17.42,0,0,1-2.07-8.94q0-12.76,11-29.84T508.19,393Q498.29,436.06,488.4,454.57Z" transform="translate(-210.07 -155.17)"/><path class="cls-2" d="M918.22,170.23c-49.78,28.08-113.45,83.84-152,137.33-9.38-27.63-23.79-55.69-34.76-70.55l-28.28,20.87c13.58,18.39,35.41,65.1,37.38,93.6h0l32.29,13.78c24.1-56.45,105-132,162.57-164.44Z" transform="translate(-210.07 -155.17)"/><path class="cls-2" d="M797.25,185.52l-5.7-30.22c-101.65,19.2-245.77.07-247.22-.13l-4.13,30.47c3.26.45,46,6.12,101.28,8.25v164.5h35.15V194.67l5.14,0C720,194.69,760.83,192.4,797.25,185.52Z" transform="translate(-210.07 -155.17)"/><rect class="cls-2" x="714.95" y="113.82" width="140.9" height="35.23"/><rect class="cls-2" x="767.79" y="60.98" width="35.23" height="140.9"/></g></svg>