<svg xmlns="http://www.w3.org/2000/svg" width="62" height="62" viewBox="0 0 62 62">
  <g id="NIBIRU_-_light" data-name="NIBIRU - light" transform="translate(0 0)">
    <path id="Path_3272" data-name="Path 3272" d="M30.691,4.3c-.1,0,.1,0,0,0C18.927,4.3,9.08,11.311,5.459,21.582h0c7.933-.91,13.44-2.138,17.955-4.779C25.754,15.434,29.657,11.294,30.691,4.3Zm1.217,52.168c.86-6.048,2.948-9.464,4.465-10.648,4.234-3.3,9.216-5.8,18.082-6.256q.765-.039,1.453-.144A25.936,25.936,0,0,1,31.908,56.468Z" transform="translate(0 0.687)" fill="#d2d6d9" fill-rule="evenodd"/>
    <path id="Path_3273" data-name="Path 3273" d="M62,28.786C58.92,5.318,40.186-.18,31.2,0c.88,10.184-4.4,16.051-7.149,17.711-4.257,2.571-9.569,4.1-17.048,4.981s-7.516,8.856-6.6,12.73C5.247,57.125,22.955,62.18,31.2,62c-.44-9.3,3.116-14.575,4.949-16.051C40.145,42.73,44.842,40.3,53.2,39.856S62,32.409,62,28.786Z" transform="translate(0 0)" fill="#fff"/>
  </g>
</svg>
