<svg id="Layer_1" data-name="Layer 1" xmlns="http://www.w3.org/2000/svg" width="214.234" height="29.718" viewBox="0 0 214.234 29.718">
  <path id="Path_3307" data-name="Path 3307" d="M21.764,0H19.95a1.537,1.537,0,0,0-1.7,1.7V19.861L5.862,1.137A2.029,2.029,0,0,0,3.846,0H1.666A1.512,1.512,0,0,0,0,1.7V27.447a1.487,1.487,0,0,0,1.663,1.688H3.519a1.487,1.487,0,0,0,1.663-1.688V8.824l12.462,19.19a2.066,2.066,0,0,0,1.991,1.121h2.18a1.512,1.512,0,0,0,1.7-1.688V1.7A1.537,1.537,0,0,0,21.764,0Z" transform="translate(0.012 0.016)" fill="#061937"/>
  <path id="Path_3308" data-name="Path 3308" d="M40.61,24.648H28.375v-8.14h8.619a1.525,1.525,0,0,0,1.7-1.7V13.673a1.512,1.512,0,0,0-1.7-1.663H28.375V4.45H39.917A1.5,1.5,0,0,0,41.605,2.8V1.665A1.537,1.537,0,0,0,39.917,0H24.8a1.512,1.512,0,0,0-1.663,1.7V27.445A1.487,1.487,0,0,0,24.8,29.134H40.61a1.512,1.512,0,0,0,1.7-1.688V26.311a1.512,1.512,0,0,0-1.7-1.663Z" transform="translate(6.027 0.017)" fill="#061937"/>
  <path id="Path_3309" data-name="Path 3309" d="M63.86,0H43.233a1.525,1.525,0,0,0-1.7,1.7V2.837a1.487,1.487,0,0,0,1.7,1.651h7.711V27.446a1.487,1.487,0,0,0,1.663,1.688h1.814a1.5,1.5,0,0,0,1.7-1.688V4.488h7.724a1.474,1.474,0,0,0,1.663-1.651V1.7A1.512,1.512,0,0,0,63.86,0Z" transform="translate(10.812 0.017)" fill="#061937"/>
  <path id="Path_3310" data-name="Path 3310" d="M68.164,8.052c0-1.94,1.7-3.238,4.372-3.238a9.438,9.438,0,0,1,4.952,1.575c.857.441,1.7.6,2.306-.567l.731-1.336A1.588,1.588,0,0,0,80,2.18,13.369,13.369,0,0,0,72.6,0c-5.456,0-9.664,3.276-9.664,8.329,0,8.946,13.382,7.812,13.382,13.268,0,1.94-1.613,3.276-4.284,3.276a10,10,0,0,1-5.821-2.1c-1.008-.567-1.7-.529-2.344.365l-.895,1.26a1.512,1.512,0,0,0,.239,2.344,15.247,15.247,0,0,0,8.82,2.911c6.023,0,9.5-3.78,9.5-8.493C81.533,12.059,68.164,13.432,68.164,8.052Z" transform="translate(16.274 0.019)" fill="#061937"/>
  <path id="Path_3311" data-name="Path 3311" d="M104.583,22.682a1.462,1.462,0,0,0-2.344-.29,12.046,12.046,0,0,1-7.044,2.52c-6.187,0-9.664-4.889-9.664-10.269s3.352-9.866,9.627-9.866a12.033,12.033,0,0,1,6.477,2.016c.97.6,1.739.529,2.293-.4l.731-1.172a1.575,1.575,0,0,0-.315-2.344A16.015,16.015,0,0,0,94.957,0,14.327,14.327,0,0,0,80.151,14.719c0,8.455,5.821,14.969,14.843,14.969a16.166,16.166,0,0,0,10.168-3.553,1.588,1.588,0,0,0,.239-2.356Z" transform="translate(20.856 0.017)" fill="#061937"/>
  <path id="Path_3312" data-name="Path 3312" d="M151.028,0h-1.865A1.512,1.512,0,0,0,147.5,1.7V18.9c0,3.881-2.52,6.061-6.388,6.061s-6.3-2.18-6.3-6.061V1.7A1.525,1.525,0,0,0,133.06,0h-1.814a1.512,1.512,0,0,0-1.663,1.7V18.9c0,6.426,4.612,10.8,11.567,10.8s11.529-4.372,11.529-10.8V1.7A1.5,1.5,0,0,0,151.028,0Z" transform="translate(33.708 0.015)" fill="#061937"/>
  <path id="Path_3313" data-name="Path 3313" d="M173.28,0H152.653A1.525,1.525,0,0,0,151,1.7V2.837a1.487,1.487,0,0,0,1.7,1.651h7.724V27.445a1.487,1.487,0,0,0,1.663,1.688h1.814a1.5,1.5,0,0,0,1.7-1.688V4.488h7.724a1.474,1.474,0,0,0,1.613-1.651V1.7A1.512,1.512,0,0,0,173.28,0Z" transform="translate(39.278 0.017)" fill="#061937"/>
  <path id="Path_3314" data-name="Path 3314" d="M117.171,0H105.944a2.394,2.394,0,1,0,0,4.776h11.227a9.425,9.425,0,0,1,9.463,9.866c0,5.821-3.969,10.269-9.463,10.269s-9.463-4.448-9.463-10.269a9.828,9.828,0,0,1,4.032-8.2l-.113.076h-3.4a2.369,2.369,0,0,1-2.281-1.726,14.6,14.6,0,0,0-3.654,9.853,14.843,14.843,0,0,0,29.686,0A14.364,14.364,0,0,0,117.171,0Z" transform="translate(26.614 0.018)" fill="#061937"/>
  <path id="Path_3315" data-name="Path 3315" d="M105.22,3.79Z" transform="translate(27.376 1.004)" fill="#061937"/>
  <path id="Path_3316" data-name="Path 3316" d="M107.471,5.524h3.364l.113-.076a9.223,9.223,0,0,1,4.776-1.638H105.19A2.369,2.369,0,0,0,107.471,5.524Z" transform="translate(27.368 1.01)" fill="#061937"/>
</svg>
