<?xml version="1.0" encoding="utf-8"?>
<!-- Generator: Adobe Illustrator 25.0.0, SVG Export Plug-In . SVG Version: 6.00 Build 0)  -->
<svg version="1.1" id="Layer_1" xmlns="http://www.w3.org/2000/svg" xmlns:xlink="http://www.w3.org/1999/xlink" x="0px" y="0px"
	 viewBox="0 0 584 314" style="enable-background:new 0 0 584 314;" xml:space="preserve">
<style type="text/css">
	.st0{fill:#FFFFFF;}
</style>
<g>
	<g>
		<path class="st0" d="M278.5,162.1c-1-1.7-2.4-2.5-4.2-2.5c-1.4,0-2.9,0.5-4.7,1.6c-9.9,6.5-20.1,13.7-30.5,21.5l5.3-32.7
			c3.5-19.9,5.3-31.6,5.3-35c0-1.9-0.6-3.3-1.8-4.1c-1.2-0.8-3.4-1.2-6.5-1.2c-4.5,0-7.8,0.9-10.1,2.6c-2.2,1.8-3.9,4.7-5,8.7
			c-3.3,12.1-6.6,22.2-10.1,30.5c-3.5,8.3-6.7,14.4-9.8,18.5c-3,4.1-5.6,6.1-7.6,6.1c-2.8,0-4.3-2.6-4.3-7.7c0-3.3,0.4-7.4,1.2-12.5
			s1.8-10.4,2.8-16c0.8-4.1,1.9-8.6,3.3-13.6c1.5-6.2,2.2-9.9,2.2-11c0-1.9-0.6-3.3-1.7-4.3c-1.2-0.9-3.2-1.4-6.2-1.4
			c-5.3,0-9.1,0.9-11.6,2.6c-2.4,1.8-4.3,4.7-5.7,8.7c-3.1,9.5-5.4,18.5-6.7,26.9c-1,6.2-1.6,12.8-1.9,19.9
			c-3.9,4.4-7.2,7.8-9.8,10.2c-3.7,3.3-6.9,5-9.7,5c-3.9,0-5.9-2.7-5.9-8.1c0-3.8,1.3-11.6,3.9-23.4c3-13.8,4.5-23.4,4.5-28.7
			c0-8.8-4.4-13.2-13.2-13.2c-7.2,0-14.9,3.8-23.2,11.4c-8.3,7.6-15.8,19.7-22.6,36.4c0.4-2.4,1.2-6.1,2.2-11
			c2.6-11.4,3.9-19.2,3.9-23.6c0-4.5-1-7.8-2.9-10c-2-2.2-5.3-3.3-10.1-3.3c-4.7,0-9.8,1.8-15.1,5.4c-5.4,3.6-10.6,9-15.7,16.4
			c-5.1,7.3-9.5,16.3-13.1,26.8c0.5-6,1.2-10.9,2-14.9c0.8-4,1.9-8.7,3.3-14.1c2-7.6,3-12.5,3-14.6c0-1.9-0.5-3.2-1.6-3.9
			c-1.1-0.7-3-1-5.7-1c-5,0-8.9,0.9-11.7,2.7c-2.8,1.8-4.8,4.7-6,8.6c-5,15.9-7.5,32.6-7.5,50.2c0,11.9,1,20.6,3.2,26
			c2.1,5.4,5.7,8.1,10.9,8.1c4.2,0,7.3-1.1,9.2-3.4c2-2.2,3.7-6.5,5.2-12.9c1.8-7.3,4.1-14.8,7-22.4c2.9-7.6,5.9-13.8,9-18.7
			c3.1-4.9,5.7-7.3,7.7-7.3c1.5,0,2.2,1.1,2.2,3.3c0,2.7-0.5,8.4-1.6,17.1c-1.4,9.8-2,17.2-2,22.4c0,6.1,1.1,11.3,3.4,15.5
			c2.2,4.3,5.6,6.4,10.1,6.4c4.3,0,7.5-1.1,9.5-3.3c2-2.2,3.7-6.5,5.2-13c2-8.3,4.7-16.1,7.9-23.6c3.3-7.4,6.5-13.4,9.8-18
			c3.3-4.5,5.8-6.8,7.5-6.8c1.5,0,2.2,1.1,2.2,3.3c0,3.3-0.9,9.1-2.6,17.7c-1.9,9.8-2.8,16.5-2.8,20.3c0,7.6,1.8,13.4,5.3,17.4
			c3.5,4,8.7,6,15.7,6c8.5,0,16.2-2.3,22.9-6.9c3.1-2.1,6.1-4.5,9-7.2c0.8,2,1.8,3.9,3,5.7c3.9,5.6,8.8,8.4,14.9,8.4
			c5.4,0,10.6-2.5,15.4-7.6c4.9-5.1,8.7-12.5,11.4-22.3c-1.2,9.3-2.3,16.5-3.3,21.5l-0.6,4.7c-14.5,11.1-25.7,21-33.6,29.6
			c-7.9,8.6-13.3,16.2-16.3,22.9c-2.9,6.6-4.4,13.1-4.4,19.5c0,6.9,2.2,12.5,6.5,16.8c4.3,4.3,10,6.4,16.9,6.4
			c12.9,0,23.5-8,31.8-24.1c8.3-16.1,15.1-38.1,20.2-66.2l39-26.2c2-1.4,3.5-2.9,4.5-4.7c0.9-1.8,1.4-4.2,1.4-7.3
			C280.1,165.9,279.6,163.8,278.5,162.1z M196.7,265.4c-4.2,7.9-8,11.8-11.4,11.8c-2,0-3.5-0.7-4.4-2.2c-0.9-1.5-1.3-3.4-1.3-5.7
			c0-5.4,2.3-11.8,7-19c4.7-7.3,12.2-15.3,22.7-24.1C205.1,244.5,200.9,257.6,196.7,265.4z"/>
		<g>
			<path class="st0" d="M470.4,84.4c-31.7,17.9-72.2,53.4-96.8,87.5c-6-17.6-15.2-35.5-22.1-44.9l-18,13.3
				c8.6,11.7,22.5,41.5,23.8,59.6c0,0,0,0,0,0l0,0c0,0,0,0,0,0l0,0l20.6,8.8c15.3-36,66.9-84,103.5-104.7L470.4,84.4z"/>
		</g>
		<g>
			<path class="st0" d="M393.4,94.1l-3.6-19.2c-64.7,12.2-156.5,0-157.4-0.1l-2.6,19.4c2.1,0.3,29.3,3.9,64.5,5.3v104.7h22.4V99.9
				c1.1,0,2.2,0,3.3,0C344.2,99.9,370.2,98.5,393.4,94.1z"/>
		</g>
	</g>
	<g>
		<g>
			<rect x="474.8" y="147.3" class="st0" width="89.7" height="22.4"/>
		</g>
		<g>
			<rect x="508.4" y="113.6" class="st0" width="22.4" height="89.7"/>
		</g>
	</g>
</g>
</svg>
