<svg id="apple" xmlns="http://www.w3.org/2000/svg" width="32.5" height="38" viewBox="0 0 32.5 38">
  <g id="Group_266" data-name="Group 266" transform="translate(15.626)">
    <g id="Group_265" data-name="Group 265">
      <path id="Path_2377" data-name="Path 2377" d="M255.274,0A8.917,8.917,0,0,0,249.5,3.125a7.745,7.745,0,0,0-1.891,6.018,7.526,7.526,0,0,0,5.826-2.976A8.361,8.361,0,0,0,255.274,0Z" transform="translate(-247.522)" fill="#001738"/>
    </g>
  </g>
  <g id="Group_268" data-name="Group 268" transform="translate(0 8.894)">
    <g id="Group_267" data-name="Group 267">
      <path id="Path_2378" data-name="Path 2378" d="M68.735,123.695a9.636,9.636,0,0,0-7.27-3.855c-3.413,0-4.856,1.632-7.227,1.632-2.445,0-4.3-1.627-7.253-1.627a9.871,9.871,0,0,0-7.943,4.8c-2.751,4.261-2.281,12.272,2.178,19.095,1.6,2.441,3.726,5.187,6.513,5.211,2.48.024,3.179-1.589,6.54-1.606s4,1.627,6.473,1.6c2.789-.021,5.037-3.064,6.632-5.505a27.368,27.368,0,0,0,2.457-4.607A8.373,8.373,0,0,1,68.735,123.695Z" transform="translate(-37.336 -119.84)" fill="#001738"/>
    </g>
  </g>
</svg>
