<svg xmlns="http://www.w3.org/2000/svg" width="38.004" height="38.004" viewBox="0 0 38.004 38.004">
  <g id="Huawei_AppGallery" transform="translate(-0.54 -0.412)">
    <rect id="rect817" width="38.004" height="38.004" rx="9" transform="translate(0.54 0.412)" fill="#001738"/>
    <path id="path838" d="M18.676,5.589a1.077,1.077,0,1,0,1.083,1.077v0a1.079,1.079,0,0,0-1.083-1.075Zm19.339,0A1.077,1.077,0,1,0,39.1,6.666v0a1.079,1.079,0,0,0-1.083-1.075Z" transform="translate(-8.872 -2.693)" fill="#fff"/>
    <path id="path2" d="M13.971,7.524c-.376.02-.357.567-.357.567A10.754,10.754,0,0,0,23.64,13.952,10.838,10.838,0,0,0,33.693,8.069s.08-.739-.707-.483a10.915,10.915,0,0,1-9.344,5.462A10.857,10.857,0,0,1,14.3,7.608a.686.686,0,0,0-.328-.083ZM27.638,22.809l-1.149,3.421-1.118-3.419H24.279l1.763,4.973h.85l1.151-3.267,1.15,3.267h.857l1.759-4.973H30.744l-1.12,3.419-1.149-3.421Zm-6.1,0-2.229,4.972h1.048l.43-.963.03-.073h2.316l.454,1.035h1.076L22.453,22.84l-.02-.029Zm16.143,0V27.78h1.013V22.811Zm-29.045,0v4.975H9.661V25.767h2.318v2.021h1.027V22.812H11.979v2.007H9.661V22.812Zm9.124,0v2.848c0,.809-.408,1.241-1.15,1.241s-1.157-.444-1.157-1.275v-2.81H14.425v2.845a1.99,1.99,0,0,0,2.17,2.2,2.018,2.018,0,0,0,2.19-2.243V22.813Zm14.878,0v4.968h3.821v-.906H33.648V25.646h1.867V24.74H33.648V23.721h2.711v-.906ZM21.971,24.07l.732,1.666.05.114H21.2l.049-.114Z" transform="translate(-4.21 -3.699)" fill="#fff"/>
  </g>
</svg>
