<?xml version="1.0" encoding="utf-8"?>
<!-- Generator: Adobe Illustrator 25.0.0, SVG Export Plug-In . SVG Version: 6.00 Build 0)  -->
<svg version="1.1" id="Layer_1" xmlns="http://www.w3.org/2000/svg" xmlns:xlink="http://www.w3.org/1999/xlink" x="0px" y="0px"
	 viewBox="0 0 256 256" style="enable-background:new 0 0 256 256;" xml:space="preserve">
<style type="text/css">
	.st0{fill:#7387C3;}
	.st1{fill:#FFFFFF;}
</style>
<g>
	<g>
		
			<image style="overflow:visible;opacity:0.1;" width="1105" height="1105" xlink:href="2C33FE68.png"  transform="matrix(0.24 0 0 0.24 0.48 0.48)">
		</image>
		<g>
			<path class="st0" d="M230.5,128c0,56.4-45.6,102.2-102,102.5c-0.2-0.1-0.3-0.2-0.5-0.3v0.3c-12.7,0-24.9-2.3-36.1-6.5
				c-18.1-6.8-38.1-6.6-55.8,1.1c-3,1.3-5.9,2.7-8.7,4.3c-0.5,0.3-1-0.3-0.7-0.7c1.6-2.8,3-5.8,4.3-8.8c7.7-17.7,7.9-37.6,1.1-55.7
				c-4.2-11.2-6.5-23.4-6.5-36.1H26c-0.2-0.3-0.3-0.5-0.5-0.8C25.9,70.9,71.7,25.4,128.1,25.5C184.7,25.6,230.5,71.4,230.5,128z"/>
		</g>
	</g>
	<g>
		
			<image style="overflow:visible;opacity:0.1;" width="712" height="570" xlink:href="2C33FE69.png"  transform="matrix(0.24 0 0 0.24 47.52 64.56)">
		</image>
		<g>
			<g>
				<path class="st1" d="M76.8,145.8c-2.3,0-4.1-1.8-4.1-4.1v-27.3c0-2.3,1.8-4.1,4.1-4.1s4.1,1.8,4.1,4.1v27.3
					C80.8,143.9,79,145.8,76.8,145.8z"/>
				<path class="st1" d="M97.2,152.6c-2.3,0-4.1-1.8-4.1-4.1v-41c0-2.3,1.8-4.1,4.1-4.1s4.1,1.8,4.1,4.1v41
					C101.3,150.8,99.5,152.6,97.2,152.6z"/>
				<path class="st1" d="M117.8,159.4c-2.3,0-4.1-1.8-4.1-4.1v-54.7c0-2.3,1.8-4.1,4.1-4.1s4.1,1.8,4.1,4.1v54.7
					C121.8,157.6,120,159.4,117.8,159.4z"/>
				<path class="st1" d="M138.2,152.6c-2.3,0-4.1-1.8-4.1-4.1v-41c0-2.3,1.8-4.1,4.1-4.1s4.1,1.8,4.1,4.1v41
					C142.4,150.8,140.5,152.6,138.2,152.6z"/>
				<path class="st1" d="M158.8,166.3c-2.3,0-4.1-1.8-4.1-4.1V93.8c0-2.3,1.8-4.1,4.1-4.1s4.1,1.8,4.1,4.1v68.3
					C162.9,164.4,161,166.3,158.8,166.3z"/>
				<path class="st1" d="M179.2,145.8c-2.3,0-4.1-1.8-4.1-4.1v-27.3c0-2.3,1.8-4.1,4.1-4.1s4.1,1.8,4.1,4.1v27.3
					C183.4,143.9,181.5,145.8,179.2,145.8z"/>
			</g>
		</g>
	</g>
</g>
</svg>
