<svg id="playstore" xmlns="http://www.w3.org/2000/svg" width="34" height="38" viewBox="0 0 34 38">
  <path id="Path_2380" data-name="Path 2380" d="M51.569,17.277l5.469-5.7L37.814.474A3.463,3.463,0,0,0,35.129.129Zm0,0" transform="translate(-32.559 0)" fill="#fff"/>
  <path id="Path_2382" data-name="Path 2382" d="M288.97,174.639l-5.62-3.245-5.913,6.167,6.051,6.311,5.482-3.165a3.5,3.5,0,0,0,0-6.068Zm0,0" transform="translate(-256.722 -158.674)" fill="#fff"/>
  <path id="Path_2381" data-name="Path 2381" d="M49.5,276.18,32.891,293.5a3.448,3.448,0,0,0,1.1.181,3.5,3.5,0,0,0,1.752-.475L55.1,282.028Zm0,0" transform="translate(-30.487 -255.682)" fill="#fff"/>
  <path id="Path_2379" data-name="Path 2379" d="M1.2,18.855a3.475,3.475,0,0,0-.7,2.109V51.947a3.483,3.483,0,0,0,.609,1.981L17.967,36.344Zm0,0" transform="translate(-0.5 -17.457)" fill="#fff"/>
</svg>
