<svg id="Layer_1" data-name="Layer 1" xmlns="http://www.w3.org/2000/svg" width="178.62" height="74.589" viewBox="0 0 178.62 74.589">
  <path id="Path_3335" data-name="Path 3335" d="M3.828,3.814H57.307v9.922H3.828ZM0,17.564H61.121V0H0Z" fill="#fff"/>
  <path id="Path_3336" data-name="Path 3336" d="M3.814,38.19H0V20.64H3.814v6.938H10.64V20.64h3.828V38.19H10.64V30.914H3.814Zm19.337.281a6.066,6.066,0,0,1-6.516-6.46c0-3.9,2.575-6.6,6.009-6.6,3.729,0,5.629,2.505,5.629,6.235v1.407H20.252a3.152,3.152,0,0,0,3.49,2.449,5.967,5.967,0,0,0,3.448-1.013h.141V37.3a7.037,7.037,0,0,1-4.222,1.1m-2.9-7.98h4.546c-.07-1.281-.605-2.181-2.1-2.181a2.308,2.308,0,0,0-2.449,2.181m17.958.352L36.2,38.12H32.89L29.076,25.763v-.141h3.645L34.8,33.011l1.97-7.389h2.97l2,7.389,2.111-7.389h3.5v.141L43.543,38.12H40.194ZM53.521,38.4c-3.026,0-4.222-1.21-4.222-4.039V20.57H53V34.109c0,.873.338,1.182,1.07,1.182a2.815,2.815,0,0,0,.816-.042h0V38.3a4.447,4.447,0,0,1-1.407.225m8.965,0a6.066,6.066,0,0,1-6.432-6.516c0-3.9,2.59-6.6,6.009-6.6,3.744,0,5.629,2.505,5.629,6.235v1.407H59.629a3.152,3.152,0,0,0,3.49,2.449,5.911,5.911,0,0,0,3.448-1.013h.141V37.3a7.037,7.037,0,0,1-4.222,1.1m-2.9-7.98h4.56c-.084-1.281-.619-2.181-2.111-2.181a2.322,2.322,0,0,0-2.449,2.181m23.207-4.8h2.815v2.969H82.794v5.095c0,1.1.422,1.6,1.548,1.6a3.518,3.518,0,0,0,1.126-.169h.084v2.941a6.657,6.657,0,0,1-2.28.366c-3.012,0-4.222-1.407-4.222-4.546V28.662H74.378v5.095c0,1.1.422,1.6,1.548,1.6a3.518,3.518,0,0,0,1.126-.169h.084v2.871a6.657,6.657,0,0,1-2.28.366c-3,0-4.222-1.407-4.222-4.546V28.662H68.763V25.693h1.914v-3.42h3.7v3.42h4.757v-3.42h3.7Zm21.983.9c0,3.828-2.547,5.9-6.417,5.9H95.7v5.7H91.843V20.64H98.4c3.87,0,6.417,2.083,6.417,5.953m-6.741,2.674a2.533,2.533,0,0,0,2.815-2.674,2.547,2.547,0,0,0-2.815-2.73H95.7v5.4Zm15,7.684a4.222,4.222,0,0,1-3.307,1.407,4.081,4.081,0,0,1-4.447-4.124c0-2.449,2-4.081,4.869-4.081a9.683,9.683,0,0,1,2.815.422v-.211c0-1.407-.76-1.942-2.815-1.942a7.163,7.163,0,0,0-3.518.957h-.141V26.453a9.218,9.218,0,0,1,4.222-1.041c3.772,0,5.826,1.8,5.826,4.94V38.19h-3.5Zm-.113-2.688v-1.07a4.222,4.222,0,0,0-2.041-.422c-1.21,0-1.942.45-1.942,1.407s.732,1.492,1.83,1.492a2.167,2.167,0,0,0,2.153-1.407m5.629-2.308a6.263,6.263,0,0,1,6.516-6.558,5.9,5.9,0,0,1,3.476.957v3.265h-.141a4.658,4.658,0,0,0-2.815-.985,3.152,3.152,0,0,0-3.265,3.392,3.138,3.138,0,0,0,3.265,3.378,4.658,4.658,0,0,0,2.815-.985h.141v3.167a5.9,5.9,0,0,1-3.476.957,6.235,6.235,0,0,1-6.558-6.516m16.072.563v5.629h-3.744V20.64h3.7v9.992l3.744-4.94h4.222v.141l-4.489,5.629,4.518,6.6V38.2h-4.222Zm16.381,4.433a4.222,4.222,0,0,1-3.321,1.407,4.067,4.067,0,0,1-4.433-4.124c0-2.449,2-4.081,4.855-4.081a9.851,9.851,0,0,1,2.815.422v-.211c0-1.407-.76-1.942-2.815-1.942a7.037,7.037,0,0,0-3.5.957h-.141v-3a9.176,9.176,0,0,1,4.222-1.041c3.772,0,5.812,1.8,5.812,4.94V38.19h-3.49Zm-.113-2.688v-1.07a4.335,4.335,0,0,0-2.055-.422c-1.21,0-1.928.45-1.928,1.407s.718,1.492,1.815,1.492a2.181,2.181,0,0,0,2.167-1.407m9.95-6.544a3.279,3.279,0,0,1,3.026-2.167,2.956,2.956,0,0,1,1.21.225v3.547h-.141a4.222,4.222,0,0,0-1.633-.281,2.322,2.322,0,0,0-2.35,1.97V38.26h-3.715V25.693h3.6Zm14.172,9.19a4.433,4.433,0,0,1-3.7,1.562c-3.209,0-5.249-2.913-5.249-6.516s2.041-6.629,5.249-6.629A4.433,4.433,0,0,1,174.9,26.8V20.64h3.715V38.19h-3.6Zm-.113-2.955v-4.1a2.73,2.73,0,0,0-2.35-1.281c-1.633,0-2.73,1.182-2.73,3.307s1.1,3.293,2.73,3.293a2.716,2.716,0,0,0,2.35-1.295M0,43.932H10.851v2.125H2.407v5.362h7.656v2.125H2.449V59.4h8.444v2.125H0Zm19.8,4.94c2.815,0,4.321,1.83,4.321,4.827v7.783H21.8V53.755a2.435,2.435,0,0,0-2.59-2.744,3.223,3.223,0,0,0-3.11,2.238v8.233H13.764V49.125H16.1v1.8a4.222,4.222,0,0,1,3.7-2.055m10.6.253h3.167v2H30.4v6.643c0,1.407.732,1.886,2.041,1.886a3,3,0,0,0,1.041-.169h.084v1.984a3.772,3.772,0,0,1-1.407.253c-2.9,0-4.053-1.323-4.053-3.729V51.123H25.923v-2h2.139V45.832H30.4ZM41.151,61.791A5.812,5.812,0,0,1,35.057,55.5c0-3.884,2.308-6.572,5.629-6.572s5.165,2.449,5.165,6.066v1.07H37.407a3.772,3.772,0,0,0,4.067,3.7,5.207,5.207,0,0,0,3.448-1.112h.113v1.928a6.122,6.122,0,0,1-3.856,1.1m-3.673-7.642h6.122c-.084-1.83-.985-3.223-2.9-3.223a3.378,3.378,0,0,0-3.251,3.223M50.96,50.983a3.251,3.251,0,0,1,3.054-2.111,2.955,2.955,0,0,1,1.21.2v2.294H55.14a3.87,3.87,0,0,0-1.407-.239,2.815,2.815,0,0,0-2.716,2.238v8.064H48.624v-12.3H50.96Zm12.188-2.167c3.673,0,5.629,3.012,5.629,6.432s-1.97,6.432-5.629,6.432A4.461,4.461,0,0,1,59.7,60.06v6.15H57.363V49.125H59.7v1.407a4.363,4.363,0,0,1,3.448-1.661m-.394,10.752c2.308,0,3.645-1.815,3.645-4.321s-1.407-4.321-3.645-4.321A3.462,3.462,0,0,0,59.7,52.939v4.827a3.448,3.448,0,0,0,3.054,1.928m11.118-8.585A3.265,3.265,0,0,1,76.94,49a2.956,2.956,0,0,1,1.21.2v2.294h-.084a3.87,3.87,0,0,0-1.407-.239,2.815,2.815,0,0,0-2.73,2.238v8.064H71.549V49.125h2.322Zm7.642-6.924a1.407,1.407,0,1,1-1.492,1.478,1.506,1.506,0,0,1,1.492-1.478M80.359,49.2H82.7V61.552H80.359Zm10.654,5.137c1.773.563,3.729,1.295,3.729,3.659s-2.069,3.744-4.672,3.744a7.135,7.135,0,0,1-4.222-1.126V58.4h.113A6.009,6.009,0,0,0,90,59.807c1.323,0,2.505-.493,2.505-1.576s-.985-1.337-2.927-1.984-3.729-1.295-3.729-3.575,1.956-3.8,4.461-3.8A6.6,6.6,0,0,1,94.1,49.885v2.252h-.084a5.629,5.629,0,0,0-3.645-1.281c-1.407,0-2.28.647-2.28,1.506s.9,1.267,2.9,1.914m11.85,7.473a5.826,5.826,0,0,1-6.094-6.291c0-3.884,2.308-6.572,5.629-6.572s5.165,2.449,5.165,6.066v1.07H99.091a3.772,3.772,0,0,0,4.067,3.7,5.264,5.264,0,0,0,3.462-1.112h.084v1.97a6.122,6.122,0,0,1-3.856,1.1m-3.673-7.642h6.15c-.084-1.83-.985-3.223-2.9-3.223a3.392,3.392,0,0,0-3.251,3.223" transform="translate(0 8.379)" fill="#fff"/>
</svg>
