<svg xmlns="http://www.w3.org/2000/svg" width="73.602" height="29.999" viewBox="0 0 73.602 29.999">
  <g id="MyTV" transform="translate(-0.001)">
    <path id="Path_3350" data-name="Path 3350" d="M245.051,217.12a.631.631,0,0,0-.563-.344,1.252,1.252,0,0,0-.631.22q-2,1.317-4.117,2.909l.713-4.419q.713-4.035.715-4.721a.616.616,0,0,0-.248-.549,1.671,1.671,0,0,0-.878-.165,1.781,1.781,0,0,0-2.031,1.543,33.368,33.368,0,0,1-1.359,4.118,11.991,11.991,0,0,1-1.318,2.494q-.618.823-1.032.824-.577,0-.576-1.043a11.18,11.18,0,0,1,.164-1.688q.165-1.032.384-2.155.165-.823.439-1.839a11.419,11.419,0,0,0,.3-1.483.7.7,0,0,0-.234-.576,1.361,1.361,0,0,0-.837-.193,2.7,2.7,0,0,0-1.564.357,2.29,2.29,0,0,0-.766,1.184,23.541,23.541,0,0,0-.906,3.637,22.3,22.3,0,0,0-.258,2.687,16.521,16.521,0,0,1-1.324,1.376,2.142,2.142,0,0,1-1.3.673q-.8,0-.8-1.1a19.085,19.085,0,0,1,.521-3.156,22.132,22.132,0,0,0,.6-3.87,1.578,1.578,0,0,0-1.784-1.784,4.828,4.828,0,0,0-3.129,1.538,13.6,13.6,0,0,0-3.047,4.913q.086-.494.3-1.483a17.465,17.465,0,0,0,.522-3.182,1.953,1.953,0,0,0-.4-1.345,1.778,1.778,0,0,0-1.352-.447,3.715,3.715,0,0,0-2.045.728,8.34,8.34,0,0,0-2.114,2.21,14.72,14.72,0,0,0-1.77,3.623,18.725,18.725,0,0,1,.274-2.018q.164-.81.439-1.908a10.444,10.444,0,0,0,.411-1.978.567.567,0,0,0-.219-.521,1.552,1.552,0,0,0-.769-.138,2.854,2.854,0,0,0-1.578.371,2.071,2.071,0,0,0-.81,1.173,22.36,22.36,0,0,0-1.016,6.78,10.417,10.417,0,0,0,.43,3.513,1.505,1.505,0,0,0,1.469,1.1,1.579,1.579,0,0,0,1.249-.453,4.281,4.281,0,0,0,.7-1.743,24.151,24.151,0,0,1,.946-3.019,13.985,13.985,0,0,1,1.22-2.529q.633-.989,1.042-.988.3,0,.3.439,0,.549-.219,2.306a23.8,23.8,0,0,0-.274,3.019,4.476,4.476,0,0,0,.453,2.1,1.455,1.455,0,0,0,1.359.865,1.647,1.647,0,0,0,1.276-.439,4.173,4.173,0,0,0,.7-1.757,19.772,19.772,0,0,1,1.07-3.182,13.253,13.253,0,0,1,1.317-2.431q.661-.92,1.016-.919c.2,0,.3.146.3.439a14.209,14.209,0,0,1-.357,2.387,17.163,17.163,0,0,0-.384,2.745,3.443,3.443,0,0,0,.714,2.347,2.672,2.672,0,0,0,2.114.81,5.326,5.326,0,0,0,3.087-.933,11.015,11.015,0,0,0,1.211-.974,4.062,4.062,0,0,0,.408.767,2.363,2.363,0,0,0,2.018,1.139,2.888,2.888,0,0,0,2.086-1.032,6.991,6.991,0,0,0,1.537-3.006q-.247,1.892-.439,2.909l-.086.631a36.443,36.443,0,0,0-4.542,3.994,11.831,11.831,0,0,0-2.193,3.09,6.522,6.522,0,0,0-.59,2.635,3.039,3.039,0,0,0,.878,2.265,3.1,3.1,0,0,0,2.277.862q2.608,0,4.3-3.252a32.468,32.468,0,0,0,2.731-8.934l5.267-3.538a1.792,1.792,0,0,0,.6-.631,2.123,2.123,0,0,0,.192-.988,1.659,1.659,0,0,0-.2-.865ZM234,231.078q-.851,1.59-1.538,1.592a.633.633,0,0,1-.59-.3,1.5,1.5,0,0,1-.178-.769,4.95,4.95,0,0,1,.946-2.566,15.515,15.515,0,0,1,3.062-3.25A23.273,23.273,0,0,1,234,231.078Z" transform="translate(-210.066 -205.33)" fill="#cc2948"/>
    <path id="Path_3351" data-name="Path 3351" d="M721.673,170.23A45.977,45.977,0,0,0,708.6,182.04a24.933,24.933,0,0,0-2.989-6.067l-2.432,1.795a20.246,20.246,0,0,1,3.215,8.05h0L709.171,187c2.073-4.855,9.03-11.352,13.981-14.142Z" transform="translate(-660.772 -168.935)" fill="#1f2125"/>
    <path id="Path_3352" data-name="Path 3352" d="M562.306,157.78l-.49-2.6c-8.742,1.651-21.136.006-21.261-.011l-.355,2.62c.28.039,3.956.526,8.71.71v14.147h3.023v-14.08h.442A54.9,54.9,0,0,0,562.306,157.78Z" transform="translate(-511.808 -155.17)" fill="#1f2125"/>
    <rect id="Rectangle_1522" data-name="Rectangle 1522" width="12.117" height="3.03" transform="translate(61.486 9.788)" fill="#1f2125"/>
    <rect id="Rectangle_1523" data-name="Rectangle 1523" width="3.03" height="12.117" transform="translate(66.03 5.244)" fill="#1f2125"/>
  </g>
</svg>
