<svg xmlns="http://www.w3.org/2000/svg" width="42.712" height="46" viewBox="0 0 42.712 46">
  <path id="Path_3346" data-name="Path 3346" d="M35.442,22.074h0l-6.1-3.89-8.7-5.531v.031L14.491,8.818c.135-.35.289-.694.461-1.039h11.29a5.66,5.66,0,0,1,5.168,7.989L37.3,19.517A12.7,12.7,0,0,0,26.236.73H0V7.865l14.135,9.009v.031l6.355,4.056,3.38,2.151,2.391,1.524,1.954,1.229,5.095,3.3a5.906,5.906,0,0,1,2.458,4.916,5.666,5.666,0,0,1-5.347,5.654l-11.677-.074H7.067V27.986H25.633l-4.468-2.815L14.59,20.986H0v7.043H0v18.7H30.421A12.623,12.623,0,0,0,42.712,34.119C42.706,29.436,39.215,24.249,35.442,22.074Zm0,.074Z" transform="translate(0 -0.73)" fill="teal"/>
</svg>
