<svg id="Layer_1" data-name="Layer 1" xmlns="http://www.w3.org/2000/svg" viewBox="0 0 769.04 769.04"><defs><style>.cls-1{fill:#fff;}.cls-2{fill:#cc2948;}.cls-3{fill:#1f2125;}</style></defs><rect class="cls-1" width="769.04" height="769.04" rx="167.75"/><path class="cls-2" d="M368.52,387.44a5.55,5.55,0,0,0-5-3,11,11,0,0,0-5.56,1.94Q340.36,397.94,321.75,412L328,373.05q6.29-35.52,6.29-41.57,0-3.37-2.18-4.83t-7.73-1.45q-8,0-12,3.14t-5.92,10.39a292.23,292.23,0,0,1-12,36.26q-6.17,14.75-11.6,22t-9.07,7.25q-5.07,0-5.07-9.18a97.57,97.57,0,0,1,1.45-14.87q1.44-9.06,3.38-19,1.46-7.24,3.87-16.19,2.66-11.11,2.66-13a6.2,6.2,0,0,0-2.06-5.08q-2.06-1.69-7.37-1.69-9.42,0-13.78,3.14t-6.76,10.39a208.14,208.14,0,0,0-8,32A197,197,0,0,0,240,394.43a147.9,147.9,0,0,1-11.66,12.1c-4.44,4-8.26,5.92-11.49,5.92q-7,0-7-9.67,0-6.76,4.59-27.79,5.31-24.66,5.32-34.08,0-15.71-15.71-15.71-12.83,0-27.56,13.53T149.66,382q.74-4.35,2.66-13.06,4.59-20.29,4.59-28,0-8-3.5-11.84t-12-3.87q-8.47,0-18,6.4t-18.61,19.46Q95.77,364.11,89.24,383a165.55,165.55,0,0,1,2.42-17.76q1.44-7.12,3.86-16.8,3.63-13.53,3.63-17.4c0-2.26-.65-3.79-1.93-4.59s-3.55-1.21-6.77-1.21q-8.94,0-13.9,3.26t-7.13,10.27a197,197,0,0,0-8.94,59.7q0,21.27,3.74,30.94T77.15,439q7.5,0,11-4t6.16-15.35a215.39,215.39,0,0,1,8.34-26.58,124.78,124.78,0,0,1,10.76-22.24c3.7-5.8,6.77-8.7,9.18-8.7,1.78,0,2.66,1.29,2.66,3.87q0,4.83-1.93,20.3-2.41,17.4-2.42,26.58,0,10.88,4,18.49t12,7.62q7.74,0,11.24-3.87t6.17-15.47a173.23,173.23,0,0,1,9.42-28,119.77,119.77,0,0,1,11.6-21.38q5.81-8.1,8.95-8.1,2.66,0,2.65,3.87,0,5.79-3.14,21-3.39,17.42-3.38,24.17,0,13.54,6.28,20.67T205.25,439a46.86,46.86,0,0,0,27.19-8.22,95.94,95.94,0,0,0,10.66-8.57,36.39,36.39,0,0,0,3.6,6.76q6.88,10,17.77,10,9.66,0,18.37-9.07t13.53-26.46q-2.17,16.68-3.87,25.62l-.72,5.56q-25.87,19.81-40,35.16T232.44,497a57.58,57.58,0,0,0-5.19,23.21q0,12.32,7.73,19.94T255,547.8q23,0,37.83-28.64t24.05-78.67l46.4-31.18a15.73,15.73,0,0,0,5.32-5.56,18.61,18.61,0,0,0,1.69-8.7A14.56,14.56,0,0,0,368.52,387.44Zm-97.29,122.9q-7.49,14-13.53,14a5.57,5.57,0,0,1-5.2-2.66,13.15,13.15,0,0,1-1.57-6.77q0-9.67,8.34-22.6t27-28.64Q278.72,496.32,271.23,510.34Z"/><path class="cls-3" d="M596.71,295c-37.69,21.26-85.9,63.49-115.07,104-7.1-20.92-18-42.17-26.32-53.43L433.9,361.4c10.29,13.93,26.82,49.3,28.31,70.88h0l24.45,10.44c18.25-42.75,79.52-99.94,123.1-124.52Z"/><path class="cls-3" d="M505.11,306.6l-4.32-22.88c-77,14.54-186.1.06-187.2-.09l-3.13,23.07c2.47.34,34.8,4.63,76.7,6.24V437.51h26.61v-124l3.9,0C446.61,313.55,477.53,311.81,505.11,306.6Z"/><rect class="cls-3" x="601.86" y="369.81" width="106.7" height="26.67"/><rect class="cls-3" x="641.87" y="329.8" width="26.67" height="106.7"/></svg>