<?xml version="1.0" encoding="utf-8"?>
<!-- Generator: Adobe Illustrator 25.0.0, SVG Export Plug-In . SVG Version: 6.00 Build 0)  -->
<svg version="1.1" id="Layer_1" xmlns="http://www.w3.org/2000/svg" xmlns:xlink="http://www.w3.org/1999/xlink" x="0px" y="0px"
	 viewBox="0 0 746.2 314" style="enable-background:new 0 0 746.2 314;" xml:space="preserve">
<style type="text/css">
	.st0{fill:#CC2B49;}
	.st1{fill:#1F2125;}
	.st2{opacity:0.87;}
	.st3{fill:#1F2125;stroke:#1F2125;stroke-width:4;stroke-miterlimit:10;}
</style>
<g>
	<g>
		<path class="st0" d="M278.8,161.8c-1-1.7-2.4-2.5-4.2-2.5c-1.4,0-2.9,0.5-4.7,1.6c-9.9,6.5-20.1,13.7-30.5,21.6l5.3-32.8
			c3.5-20,5.3-31.6,5.3-35c0-1.9-0.6-3.3-1.8-4.1c-1.2-0.8-3.4-1.2-6.5-1.2c-4.5,0-7.8,0.9-10.1,2.6c-2.2,1.8-3.9,4.7-5,8.8
			c-3.3,12.1-6.6,22.3-10.1,30.5c-3.5,8.3-6.7,14.5-9.8,18.5c-3.1,4.1-5.6,6.1-7.6,6.1c-2.9,0-4.3-2.6-4.3-7.7
			c0-3.3,0.4-7.4,1.2-12.5c0.8-5.1,1.8-10.4,2.9-16c0.8-4.1,1.9-8.6,3.3-13.6c1.5-6.2,2.2-9.9,2.2-11c0-1.9-0.6-3.3-1.7-4.3
			c-1.2-0.9-3.2-1.4-6.2-1.4c-5.3,0-9.2,0.9-11.6,2.6c-2.4,1.8-4.3,4.7-5.7,8.8c-3.1,9.5-5.4,18.5-6.7,27c-1,6.2-1.6,12.8-1.9,19.9
			c-3.9,4.4-7.2,7.8-9.8,10.2c-3.7,3.3-7,5-9.7,5c-3.9,0-5.9-2.7-5.9-8.1c0-3.8,1.3-11.6,3.9-23.4c3-13.8,4.5-23.4,4.5-28.7
			c0-8.8-4.4-13.2-13.2-13.2c-7.2,0-14.9,3.8-23.2,11.4c-8.3,7.6-15.8,19.7-22.6,36.4c0.4-2.4,1.2-6.1,2.2-11
			c2.6-11.4,3.9-19.3,3.9-23.6c0-4.5-1-7.8-3-10c-2-2.2-5.3-3.3-10.1-3.3c-4.8,0-9.8,1.8-15.2,5.4c-5.4,3.6-10.6,9.1-15.7,16.4
			c-5.1,7.3-9.5,16.3-13.1,26.9c0.5-6,1.2-11,2-15c0.8-4,1.9-8.7,3.3-14.2c2-7.6,3.1-12.5,3.1-14.7c0-1.9-0.5-3.2-1.6-3.9
			c-1.1-0.7-3-1-5.7-1c-5,0-8.9,0.9-11.7,2.7c-2.8,1.8-4.8,4.7-6,8.7c-5,15.9-7.5,32.6-7.5,50.3c0,11.9,1.1,20.6,3.2,26.1
			c2.1,5.4,5.7,8.1,10.9,8.1c4.2,0,7.3-1.1,9.3-3.4c2-2.2,3.7-6.5,5.2-12.9c1.8-7.3,4.1-14.8,7-22.4c2.9-7.6,5.9-13.8,9.1-18.7
			c3.1-4.9,5.7-7.3,7.7-7.3c1.5,0,2.2,1.1,2.2,3.3c0,2.7-0.5,8.4-1.6,17.1c-1.4,9.8-2,17.2-2,22.4c0,6.1,1.1,11.3,3.4,15.6
			c2.2,4.3,5.6,6.4,10.1,6.4c4.3,0,7.5-1.1,9.5-3.3c2-2.2,3.7-6.5,5.2-13c2-8.3,4.7-16.2,7.9-23.6c3.3-7.5,6.5-13.5,9.8-18
			c3.3-4.5,5.8-6.8,7.5-6.8c1.5,0,2.2,1.1,2.2,3.3c0,3.3-0.9,9.2-2.6,17.7c-1.9,9.8-2.9,16.6-2.9,20.4c0,7.6,1.8,13.4,5.3,17.4
			c3.5,4,8.8,6,15.7,6c8.6,0,16.2-2.3,22.9-6.9c3.1-2.1,6.1-4.5,9-7.2c0.8,2,1.8,3.9,3,5.7c3.9,5.6,8.9,8.4,15,8.4
			c5.4,0,10.6-2.5,15.5-7.6c4.9-5.1,8.7-12.5,11.4-22.3c-1.2,9.4-2.3,16.6-3.3,21.6l-0.6,4.7c-14.5,11.1-25.8,21-33.7,29.6
			c-7.9,8.6-13.4,16.3-16.3,22.9c-2.9,6.6-4.4,13.2-4.4,19.5c0,6.9,2.2,12.5,6.5,16.8c4.3,4.3,10,6.4,16.9,6.4
			c12.9,0,23.5-8,31.9-24.1c8.3-16.1,15.1-38.2,20.3-66.3l39.1-26.3c2-1.4,3.5-2.9,4.5-4.7c0.9-1.8,1.4-4.2,1.4-7.3
			C280.4,165.7,279.9,163.5,278.8,161.8z M196.9,265.4c-4.2,7.9-8,11.8-11.4,11.8c-2,0-3.5-0.7-4.4-2.2c-0.9-1.5-1.3-3.4-1.3-5.7
			c0-5.4,2.3-11.8,7-19c4.7-7.3,12.2-15.3,22.7-24.1C205.3,244.4,201.1,257.5,196.9,265.4z"/>
		<g>
			<path class="st1" d="M471.1,84c-31.7,17.9-72.4,53.5-96.9,87.6c-6-17.6-15.2-35.5-22.2-45l-18,13.3c8.7,11.7,22.6,41.5,23.8,59.7
				c0,0,0,0,0,0l0,0c0,0,0,0,0,0l0,0l20.6,8.8c15.4-36,67-84.2,103.7-104.9L471.1,84z"/>
		</g>
		<g>
			<path class="st1" d="M393.9,93.8l-3.6-19.3c-64.8,12.2-156.8,0-157.7-0.1l-2.6,19.4c2.1,0.3,29.3,3.9,64.6,5.3V204H317V99.6
				c1.1,0,2.2,0,3.3,0C344.6,99.6,370.7,98.1,393.9,93.8z"/>
		</g>
	</g>
</g>
<g class="st2">
	<path class="st3" d="M590.5,142.1c0.7-1,1.7-1.5,2.9-1.5c1.2,0.1,2.1,0.5,2.6,1.5c0.5,0.9,0.5,1.9,0,3.1c-1.9,3-4.7,7.3-8.1,12.9
		c-3.5,5.6-6.7,10.7-9.7,15.2c-3,4.5-6,8.6-9,12.3c-1.2,1.6-2.6,3.2-4.1,4.8c-1.5,1.5-3.3,3.1-5.4,4.8c-2.1,1.6-4.1,2.9-6.1,3.8
		c-1.9,0.9-4,1.3-6.3,1.2c-2.3-0.1-4.3-0.9-6.1-2.3c-1.5-1.2-2.7-2.6-3.6-4.1c-0.9-1.5-1.3-3.3-1.3-5.4c0-2,0.1-3.8,0.2-5.4
		c0.1-1.5,0.6-3.6,1.5-6.1c0.9-2.6,1.5-4.4,1.9-5.5c0.4-1.1,1.2-3,2.4-5.6c1.2-2.6,1.9-4.1,2.1-4.4c3-7,7.3-16.2,13-27.8
		c-1.9-0.1-3.6-0.2-5.1-0.3c-7,0-13.8,0.4-20.6,1.2c-6.4,0.9-12.9,2.3-19.5,4.1c-2.3,2.7-6.1,7.1-11.7,13.3
		c-5.5,6.2-9.8,11-12.7,14.4c-12.7,14.2-22,24.3-28.1,30.4c-0.1,0.1-1.1,1.1-2.9,3c-1.8,1.9-3.1,3.1-3.8,3.7
		c-0.7,0.6-1.9,1.5-3.5,2.8c-1.6,1.3-3.1,2.2-4.4,2.7c-1.3,0.5-2.7,0.8-4.1,0.8c-2,0.1-3.5-0.7-4.4-2.3c-0.9-1.6-0.9-3.3-0.2-5.1
		c0.7-1.7,2-2.7,4-2.9c0,0.1-0.1,0.2-0.2,0.2l0.3-0.2h0.3c-0.1,0-0.2,0-0.3,0c0.2-0.1,0.5-0.2,0.8-0.4c0.3-0.2,0.6-0.3,0.8-0.4
		c1-0.7,2.3-1.7,3.7-2.9c3.2-2.7,7.2-6.6,12.1-11.8c6.3-6.5,17.4-18.8,33.3-36.7c0-0.1,0.2-0.3,0.5-0.6h-0.2
		c-1.7,0.7-3.2,0.5-4.4-0.6c-1.2-1.1-1.7-2.6-1.7-4.3c0.1-1.7,0.8-3.1,2.2-4c5-3,11.1-5.4,18.3-7.2c20.4-23.2,37.2-40.7,50.3-52.5
		c3.7-3.3,6.3-5.6,7.9-7c1.6-1.4,4.1-3.1,7.4-5.3c3.4-2.1,6.5-3.6,9.5-4.4c5.3-1.4,9.1-0.5,11.3,2.9c1.6,2.4,2,6,1.1,11
		c-0.4,2.5-0.9,4.9-1.6,7.2c-0.7,2.4-1.7,5.1-3,8.2c-1.3,3.1-2.2,5.3-2.7,6.4c-0.5,1.2-1.7,3.8-3.7,8c-2,4.1-3,6.4-3.1,6.7
		c-2,4.3-4.7,9.8-8,16.4c1.1,0.3,2.1,0.6,2.9,0.9c1.4,0.5,2.1,1.5,2,3.1c-0.1,1.5-1,2.4-2.6,2.5c-1.5,0-3.3-0.1-5.2-0.2
		c-5,10.2-8.6,17.6-10.7,22.2c-4,8.3-6.8,14.5-8.4,18.6c-1.1,2.7-2,5-2.6,6.9c-0.3,0.9-0.6,1.9-0.9,3.1c-0.2,0.8-0.3,1.4-0.3,1.7
		c0,2.6,1,4,3.1,4.4c2.1,0.4,4.1-0.1,6.1-1.4c3.2-1.7,6.7-5.1,10.7-10.1c2.8-3.5,5.5-7.3,8.4-11.5c2.8-4.2,5.8-8.9,9-14
		C586,148.9,588.6,144.9,590.5,142.1z M552.2,125.8c3.9,0.2,6.7,0.4,8.6,0.6c2-4.2,3.7-7.6,4.9-10.3c0.6-1.2,1.5-3,2.7-5.4
		c1.2-2.4,2.1-4.3,2.8-5.7c0.7-1.4,1.5-3.2,2.5-5.4c1-2.2,1.9-4.2,2.6-5.8c0.7-1.6,1.5-3.5,2.3-5.4c0.8-2,1.6-4,2.2-5.9
		c0.7-1.9,1.3-3.9,1.8-5.8c0.6-2.2,1-4.1,1.2-5.5c-0.8,0.2-1.7,0.6-2.8,1.1c-3.1,1.6-6.3,3.8-9.8,6.4c-3.5,2.7-6.1,4.8-8,6.5
		s-4.7,4.4-8.4,8.1c-9.5,9.3-20.3,20.7-32.4,34c2.5-0.3,5-0.6,7.5-0.9C537.3,125.6,544.7,125.5,552.2,125.8z M583.6,69.4
		c0.1,0,0.2,0.1,0.3,0.2c-0.1,0.1-0.2,0.2-0.2,0.3c0-0.1,0-0.2,0.2-0.3v0.2v-0.2C583.8,69.5,583.7,69.5,583.6,69.4z M585.5,70.9V71
		V70.9z"/>
	<path class="st3" d="M668.8,141.9c1.2-1.6,2.7-1.8,4.5-0.4c1.8,1.4,2.2,2.9,1.1,4.5c-12,19-23.5,32.7-34.5,41
		c-8,6-14.6,7.8-19.8,5.4c-2.5-1.1-4.2-3-5.3-5.6c-1.1-2.6-1.5-5.4-1.3-8.5c0.1-1,0.3-2,0.5-3.1c-9.1,12.5-18,17.8-26.8,16
		c-3.3-0.7-5.6-2.6-7.1-5.8c-1.5-3.1-2.2-6.6-2.1-10.4c0.2-5.7,2-12.4,5.4-19.9c3.4-7.4,7.4-14,12.2-20s10.2-10.1,16.3-12.3
		c2.9-1.1,5.9-1.5,9-1.1c3.1,0.4,5.8,1.7,7.9,3.8c1.3,1.3,2.5,2.9,3.5,4.8c0-0.1,0.1-0.2,0.2-0.4c0.1-0.2,0.2-0.3,0.2-0.4
		c0.3-0.5,0.7-0.9,1.2-1.2c6.4-12.7,15-27.8,25.6-45.4c1.3-1.6,2.9-2.5,4.7-2.5c1.8,0,3.2,0.8,4.4,2.4c1.1,1.6,1.1,3.3,0,5.1
		c-13.6,22.4-23.7,40.2-30.4,53.5c-4.3,8.5-8.1,16.7-11.3,24.5c-2.4,5.7-3.7,9.8-4,12.1c-0.3,1.9-0.2,3.7,0.3,5.4
		c0.2,0.5,0.7,0.9,1.4,1.1c-0.1,0,0.1,0,0.5,0c0.3,0,0.5,0,0.6,0c0.2,0,0.6-0.1,1.1-0.2c0.9-0.2,2-0.6,3.4-1.2c3-1.4,6.3-3.8,10-7.2
		c3.5-3.1,7.1-6.7,10.9-11c3.8-4.3,6.7-7.8,8.7-10.6C661.6,151.6,664.7,147.4,668.8,141.9z M600.8,180.1
		c8.1-6.7,15.8-17.5,23.2-32.2c0.2-1.9,0.4-4.1,0.5-6.4c0.2-2.4-0.3-4.5-1.2-6.5c-1-2-2.6-3-4.8-3.1c-3.2-0.2-7.2,2.1-12.1,6.9
		c-8.8,8.5-14.9,18.4-18.4,29.6c-1.5,5.1-1.8,9.1-0.9,12c0.4,1.7,1,2.9,1.7,3.5c0.7,0.6,1.9,0.8,3.5,0.7c1.2-0.1,2.4-0.4,3.4-0.9
		C597.1,182.9,598.9,181.7,600.8,180.1z"/>
	<path class="st3" d="M715.7,140.2c1.5-0.4,2.7,0.2,3.4,1.8c0.7,1.6,0.4,2.8-1.1,3.4c-8.4,3.6-19.3,9.5-32.7,17.8
		c-1.6,1-2.9,1.8-3.8,2.5c1.5,3.6,2.5,5.9,2.9,7.1c1.5,4.2,1.7,7.8,0.5,11c-1.2,3.1-3.2,5.7-6.1,7.6c-2.9,1.9-6.2,3.2-9.9,3.9
		c-3.7,0.7-7.4,0.7-11,0.2c-2.8-0.4-4.8-1.4-6-3.1c-1.2-1.6-1.7-3.5-1.5-5.6c0.3-2.1,1.1-4.3,2.5-6.5c3-4.6,8.7-9.7,17.2-15.2
		c0-0.1,0.1-0.2,0.2-0.2c0.1-0.1,0.2-0.1,0.3-0.1c-1.4-3.3-2.4-6.2-2.9-8.7c-1.3-6.3-0.5-12.7,2.6-19.2c3.1-6.4,7.4-12.1,12.9-16.9
		c1.5-1.4,3.3-1.8,5.2-1.2c1.9,0.7,3.1,1.8,3.6,3.5c0.5,1.6,0,3.3-1.5,4.9c-7.3,6.4-11.6,13.2-13,20.2c-0.7,3.5-0.3,7.5,1.2,12
		c4.7-2.9,9.3-5.6,13.8-8.1c0.5-0.3,1.7-1,3.6-2.1c1.9-1.1,3.2-1.8,3.9-2.2c0.7-0.4,1.9-1,3.5-1.9c1.6-0.9,3-1.5,4.1-2
		c1.1-0.5,2.3-0.9,3.8-1.5C713,141.1,714.4,140.6,715.7,140.2z M671.1,185.6c4.9-1.6,6.5-4.8,4.8-9.5c-0.6-1.4-1.4-3.2-2.3-5.4
		c-1.2,0.9-2.1,1.6-2.8,2c-2.1,1.6-3.8,2.9-5.1,3.9c-1.2,1-2.7,2.5-4.4,4.7c-1.7,2.1-2.7,4.1-2.8,5.8
		C661.8,187.9,665.9,187.4,671.1,185.6z"/>
</g>
</svg>
