<?xml version="1.0" standalone="no"?>
<!DOCTYPE svg PUBLIC "-//W3C//DTD SVG 20010904//EN"
 "http://www.w3.org/TR/2001/REC-SVG-20010904/DTD/svg10.dtd">
<svg version="1.0" xmlns="http://www.w3.org/2000/svg"
 width="499.000000pt" height="499.000000pt" viewBox="0 0 499.000000 499.000000"
 preserveAspectRatio="xMidYMid meet">

<g transform="translate(0.000000,499.000000) scale(0.100000,-0.100000)"
fill="#000000" stroke="none">
<path d="M2036 3130 c-2 -8 -7 -40 -11 -71 l-6 -56 43 -6 c24 -3 111 -11 193
-17 83 -6 174 -14 202 -16 l53 -5 2 -402 3 -402 83 -3 82 -3 0 404 0 404 188
6 c166 6 387 29 400 42 2 2 -1 34 -8 70 -14 74 -11 72 -115 55 -181 -31 -672
-29 -983 3 -108 11 -123 11 -126 -3z"/>
<path d="M3763 3004 c-196 -133 -456 -373 -587 -542 -27 -34 -50 -61 -51 -60
-2 2 -21 46 -43 99 -38 93 -117 239 -129 239 -3 0 -33 -21 -68 -46 l-62 -46
53 -102 c62 -119 79 -160 109 -276 l22 -85 73 -32 74 -31 36 64 c117 214 406
507 675 684 44 29 82 54 83 56 5 4 -68 133 -78 139 -5 3 -53 -24 -107 -61z"/>
<path d="M547 2870 c-61 -11 -84 -43 -113 -155 -19 -74 -27 -137 -31 -241 -7
-169 1 -242 31 -286 20 -30 27 -33 70 -33 61 0 78 20 106 121 53 195 137 364
179 364 11 0 22 -4 25 -9 3 -5 -1 -64 -9 -132 -24 -203 -18 -281 25 -327 26
-27 94 -30 122 -5 10 9 32 62 49 117 17 56 42 128 56 161 33 81 100 183 125
191 39 12 42 -9 20 -130 -51 -267 -17 -356 136 -356 71 0 134 20 182 59 56 44
57 44 80 6 38 -61 116 -83 179 -50 42 21 98 91 120 149 16 42 20 46 20 24 1
-15 -4 -60 -11 -99 l-12 -70 -109 -91 c-130 -108 -226 -218 -270 -307 -28 -57
-32 -76 -32 -146 0 -68 3 -85 24 -114 68 -95 209 -94 306 4 85 85 156 252 210
491 15 66 31 124 36 130 5 6 78 57 163 113 93 62 158 112 165 127 24 53 7 114
-32 114 -12 0 -75 -39 -141 -85 -65 -47 -121 -83 -124 -80 -3 3 11 110 31 238
21 128 38 248 37 268 0 32 -4 37 -27 42 -45 8 -92 -4 -112 -30 -11 -13 -29
-56 -41 -96 -28 -96 -68 -201 -97 -260 -24 -48 -88 -127 -103 -127 -22 0 -40
35 -40 74 0 48 32 232 55 316 22 80 20 109 -8 119 -30 12 -103 -2 -127 -24
-34 -31 -82 -206 -95 -346 -6 -74 -8 -77 -53 -121 -73 -71 -121 -87 -142 -49
-16 30 -12 78 16 218 14 70 28 160 31 198 5 61 3 73 -16 96 -82 103 -281 -24
-389 -249 -19 -40 -36 -71 -38 -69 -2 2 5 48 16 102 22 106 26 186 10 215 -6
11 -26 23 -45 29 -113 31 -254 -88 -342 -289 -30 -68 -33 -72 -33 -40 0 19 9
73 20 120 38 160 43 191 34 199 -15 15 -48 19 -87 11z m1307 -917 c-3 -16 -21
-77 -39 -138 -50 -162 -115 -252 -163 -226 -40 21 -33 107 16 190 28 48 168
201 184 201 4 0 6 -12 2 -27z"/>
<path d="M4170 2720 l0 -130 -130 0 -130 0 0 -85 0 -85 130 0 130 0 0 -130 0
-130 80 0 79 0 3 128 3 127 128 3 127 3 0 84 0 84 -127 3 -128 3 -2 125 -1
125 -81 3 -81 3 0 -131z"/>
</g>
</svg>
