<?xml version="1.0" encoding="utf-8"?>
<!-- Generator: Adobe Illustrator 25.0.0, SVG Export Plug-In . SVG Version: 6.00 Build 0)  -->
<svg version="1.1" id="Layer_1" xmlns="http://www.w3.org/2000/svg" xmlns:xlink="http://www.w3.org/1999/xlink" x="0px" y="0px"
	 viewBox="0 0 256 256" style="enable-background:new 0 0 256 256;" xml:space="preserve">
<style type="text/css">
	.st0{fill:#FFFFFF;stroke:#FFFFFF;stroke-width:5;stroke-miterlimit:10;}
</style>
<g>
	<path class="st0" d="M33.1,130c0-18.8,5.4-37.1,15.5-52.9l3.8-6l-11.9-7.7l-3.8,6C25.1,87.5,19,108.4,19,130
		c0,21.8,6.3,42.9,18.1,61.1l3.9,5.9l11.9-7.7l-3.9-5.9C38.6,167.5,33.1,149,33.1,130z"/>
	<path class="st0" d="M94.8,39c11.5-4.6,23.7-6.9,36.2-6.9c15.9,0,31.6,3.9,45.5,11.2l6.3,3.3l6.6-12.5l-6.3-3.3
		c-16-8.4-34-12.8-52.1-12.8c-14.3,0-28.2,2.7-41.4,7.9L83,28.5l5.2,13.2L94.8,39z"/>
	<path class="st0" d="M60.6,130c0-13.5,3.8-26.6,11.1-38l3.8-6l-11.9-7.7l-3.8,6C51,98,46.4,113.8,46.4,130
		c0,16.4,4.7,32.4,13.7,46.1l3.9,5.9l11.9-7.7l-3.9-5.9C64.5,157,60.6,143.7,60.6,130z"/>
	<path class="st0" d="M83.1,161.2l3.9,5.9l11.8-7.7l-3.9-5.9c-4.6-7-7-15.1-7-23.5c0-8.2,2.3-16.2,6.7-23l3.8-6l-11.9-7.6l-3.8,6
		c-5.8,9.2-8.9,19.8-8.9,30.7C73.8,141.1,77.1,151.9,83.1,161.2z"/>
	<path class="st0" d="M228.9,122.9h-88.4c-2.2-2.8-5.6-4.7-9.5-4.7c-6.6,0-12,5.4-12,12s5.4,12,12,12c4.1,0,7.7-2.1,9.9-5.2h87.7
		c-3.6,50.7-46,90.8-97.6,90.8c-13.2,0-26.1-2.6-38.2-7.7l-6.5-2.8l-5.5,13l6.5,2.8c13.8,5.9,28.5,8.8,43.7,8.8
		c59.4,0,108.1-46.5,111.8-105l0.2-7.1v-7.1H228.9z"/>
</g>
</svg>
