<svg xmlns="http://www.w3.org/2000/svg" width="38" height="38" viewBox="0 0 38 38">
  <g id="internet" transform="translate(0)">
    <g id="Group_280" data-name="Group 280">
      <path id="Path_2386" data-name="Path 2386" d="M355.883,22.6a.377.377,0,0,0-.505.481l.006.017a37.561,37.561,0,0,1,1.774,6.411.377.377,0,0,0,.514.277,25.876,25.876,0,0,0,4.228-2.211.378.378,0,0,0,.073-.574q-.23-.247-.469-.486A19.277,19.277,0,0,0,355.883,22.6Z" transform="translate(-329.085 -20.868)" fill="#001738"/>
      <path id="Path_2387" data-name="Path 2387" d="M386.751,122.671h8.24a.378.378,0,0,0,.376-.409,19.1,19.1,0,0,0-3.1-8.979.378.378,0,0,0-.525-.107,28.227,28.227,0,0,1-4.569,2.448q-.494.209-.993.4a.377.377,0,0,0-.241.4c.237,1.891.384,3.863.434,5.882A.377.377,0,0,0,386.751,122.671Z" transform="translate(-357.368 -104.759)" fill="#001738"/>
      <path id="Path_2391" data-name="Path 2391" d="M386.375,272.367c-.05,2.019-.2,3.991-.434,5.882a.377.377,0,0,0,.241.4q.5.189.993.4a28.24,28.24,0,0,1,4.569,2.448.379.379,0,0,0,.525-.107,19.1,19.1,0,0,0,3.1-8.979.378.378,0,0,0-.376-.409h-8.24A.377.377,0,0,0,386.375,272.367Z" transform="translate(-357.368 -251.911)" fill="#001738"/>
      <path id="Path_2390" data-name="Path 2390" d="M361.9,395.451a25.872,25.872,0,0,0-4.228-2.211.377.377,0,0,0-.514.277,37.557,37.557,0,0,1-1.774,6.411l-.006.017a.377.377,0,0,0,.505.481,19.279,19.279,0,0,0,5.621-3.913q.24-.24.469-.486A.378.378,0,0,0,361.9,395.451Z" transform="translate(-329.086 -364.159)" fill="#001738"/>
      <path id="Path_2385" data-name="Path 2385" d="M176.94,9.531a30.1,30.1,0,0,0-2.9-8.962.375.375,0,0,0-.254-.186,19.519,19.519,0,0,0-7.7,0,.375.375,0,0,0-.254.186,30.1,30.1,0,0,0-2.9,8.962.375.375,0,0,0,.271.429,25.864,25.864,0,0,0,6.735.888,25.861,25.861,0,0,0,6.735-.888A.375.375,0,0,0,176.94,9.531Z" transform="translate(-150.934)" fill="#001738"/>
      <path id="Path_2384" data-name="Path 2384" d="M167.555,164.6a.376.376,0,0,0-.466-.323,28.58,28.58,0,0,1-14.011,0,.376.376,0,0,0-.466.323c-.18,1.575-.3,3.241-.343,4.984a.377.377,0,0,0,.377.385h14.875a.377.377,0,0,0,.377-.385C167.853,167.846,167.735,166.18,167.555,164.6Z" transform="translate(-141.084 -152.11)" fill="#001738"/>
      <path id="Path_2383" data-name="Path 2383" d="M167.521,272H152.646a.377.377,0,0,0-.377.385c.045,1.744.163,3.409.343,4.984a.376.376,0,0,0,.466.323,28.582,28.582,0,0,1,14.011,0,.376.376,0,0,0,.466-.323c.18-1.575.3-3.241.343-4.984A.377.377,0,0,0,167.521,272Z" transform="translate(-141.084 -251.865)" fill="#001738"/>
      <path id="Path_2388" data-name="Path 2388" d="M162.928,369.317a30.1,30.1,0,0,0,2.9,8.962.375.375,0,0,0,.254.186,19.519,19.519,0,0,0,7.7,0,.375.375,0,0,0,.254-.186,30.1,30.1,0,0,0,2.9-8.962.375.375,0,0,0-.271-.429,25.993,25.993,0,0,0-13.47,0A.375.375,0,0,0,162.928,369.317Z" transform="translate(-150.934 -340.848)" fill="#001738"/>
      <path id="Path_2392" data-name="Path 2392" d="M67.594,27.576a25.871,25.871,0,0,0,4.228,2.211.377.377,0,0,0,.514-.277A37.553,37.553,0,0,1,74.11,23.1l.006-.017a.377.377,0,0,0-.505-.481,19.283,19.283,0,0,0-5.621,3.913q-.24.24-.469.486A.378.378,0,0,0,67.594,27.576Z" transform="translate(-62.408 -20.867)" fill="#001738"/>
      <path id="Path_2393" data-name="Path 2393" d="M9.866,122.671a59.463,59.463,0,0,1,.442-6.25.377.377,0,0,0-.241-.4q-.5-.189-.993-.4A28.239,28.239,0,0,1,4.5,113.176a.379.379,0,0,0-.525.107,19.1,19.1,0,0,0-3.1,8.979.378.378,0,0,0,.376.409Z" transform="translate(-0.881 -104.759)" fill="#001738"/>
      <path id="Path_2389" data-name="Path 2389" d="M9.074,279.049q.494-.209.993-.4a.377.377,0,0,0,.241-.4c-.237-1.891-.384-3.863-.434-5.882A.377.377,0,0,0,9.5,272H1.258a.378.378,0,0,0-.376.409,19.1,19.1,0,0,0,3.1,8.979.379.379,0,0,0,.525.107A28.222,28.222,0,0,1,9.074,279.049Z" transform="translate(-0.881 -251.913)" fill="#001738"/>
      <path id="Path_2394" data-name="Path 2394" d="M73.612,400.423a.377.377,0,0,0,.505-.481l-.006-.017a37.559,37.559,0,0,1-1.774-6.411.377.377,0,0,0-.514-.277,25.876,25.876,0,0,0-4.228,2.211.378.378,0,0,0-.073.574q.23.247.469.486A19.277,19.277,0,0,0,73.612,400.423Z" transform="translate(-62.409 -364.158)" fill="#001738"/>
    </g>
  </g>
</svg>
