<?xml version="1.0" encoding="utf-8"?>
<!-- Generator: Adobe Illustrator 25.0.0, SVG Export Plug-In . SVG Version: 6.00 Build 0)  -->
<svg version="1.1" id="Layer_1" xmlns="http://www.w3.org/2000/svg" xmlns:xlink="http://www.w3.org/1999/xlink" x="0px" y="0px"
	 viewBox="0 0 256 256" style="enable-background:new 0 0 256 256;" xml:space="preserve">
<style type="text/css">
	.st0{fill:#FFFFFF;}
</style>
<path class="st0" d="M128.1,25.5C71.7,25.4,25.9,70.9,25.5,127.2c0.2,0.3,0.3,0.5,0.5,0.8h-0.5c0,12.7,2.3,24.9,6.5,36.1
	c6.8,18,6.6,38-1.1,55.7c-1.3,3-2.8,5.9-4.3,8.8c-0.3,0.5,0.3,1,0.7,0.7c2.8-1.6,5.7-3,8.7-4.3c17.7-7.7,37.8-7.9,55.8-1.1
	c11.2,4.2,23.4,6.5,36.1,6.5v-0.3c0.2,0.1,0.3,0.2,0.5,0.3c56.4-0.3,102-46.1,102-102.5C230.5,71.4,184.7,25.6,128.1,25.5z
	 M80.8,141.7c0,2.3-1.8,4.1-4.1,4.1s-4.1-1.8-4.1-4.1v-27.3c0-2.3,1.8-4.1,4.1-4.1s4.1,1.8,4.1,4.1V141.7z M101.3,148.5
	c0,2.3-1.8,4.1-4.1,4.1s-4.1-1.8-4.1-4.1v-41c0-2.3,1.8-4.1,4.1-4.1s4.1,1.8,4.1,4.1V148.5z M121.8,155.3c0,2.3-1.8,4.1-4.1,4.1
	s-4.1-1.8-4.1-4.1v-54.7c0-2.3,1.8-4.1,4.1-4.1s4.1,1.8,4.1,4.1V155.3z M142.3,148.5c0,2.3-1.8,4.1-4.1,4.1s-4.1-1.8-4.1-4.1v-41
	c0-2.3,1.8-4.1,4.1-4.1s4.1,1.8,4.1,4.1V148.5z M162.8,162.2c0,2.3-1.8,4.1-4.1,4.1s-4.1-1.8-4.1-4.1V93.8c0-2.3,1.8-4.1,4.1-4.1
	s4.1,1.8,4.1,4.1V162.2z M183.3,141.7c0,2.3-1.8,4.1-4.1,4.1s-4.1-1.8-4.1-4.1v-27.3c0-2.3,1.8-4.1,4.1-4.1s4.1,1.8,4.1,4.1V141.7z"
	/>
</svg>
