<svg xmlns="http://www.w3.org/2000/svg" width="34" height="38" viewBox="0 0 34 38">
  <g id="send" transform="translate(0 -4.688)">
    <g id="Group_2286" data-name="Group 2286" transform="translate(0 4.688)">
      <g id="Group_2285" data-name="Group 2285" transform="translate(0 0)">
        <path id="Path_3257" data-name="Path 3257" d="M32.187,20.142,5.147,5.1A3.391,3.391,0,0,0,.358,7.012a4.684,4.684,0,0,0-.1,3.33L4.481,22.477H34A3.949,3.949,0,0,0,32.187,20.142Z" transform="translate(0 -4.688)" fill="#79bdfe"/>
      </g>
    </g>
    <g id="Group_2288" data-name="Group 2288" transform="translate(0.002 24.895)">
      <g id="Group_2287" data-name="Group 2287">
        <path id="Path_3258" data-name="Path 3258" d="M4.511,259.9.287,272.042A4.354,4.354,0,0,0,2.3,277.4a3.187,3.187,0,0,0,1.311.292,3.224,3.224,0,0,0,1.567-.412l27.041-15.046A3.949,3.949,0,0,0,34.03,259.9Z" transform="translate(-0.032 -259.904)" fill="#79bdfe"/>
      </g>
    </g>
  </g>
</svg>
