<svg xmlns="http://www.w3.org/2000/svg" width="29.539" height="24" viewBox="0 0 29.539 24">
  <g id="Logo_1_" transform="translate(1 -1)">
    <path id="white_background" d="M27.515,7.472c.018.26.018.521.018.784,0,8.007-6.1,17.242-17.243,17.242v0A17.158,17.158,0,0,1,1,22.776a12.328,12.328,0,0,0,1.442.088,12.17,12.17,0,0,0,7.527-2.6,6.068,6.068,0,0,1-5.662-4.208,6.041,6.041,0,0,0,2.736-.1,6.06,6.06,0,0,1-4.861-5.94V9.936a6.022,6.022,0,0,0,2.75.758A6.067,6.067,0,0,1,3.057,2.6a17.2,17.2,0,0,0,12.49,6.331A6.066,6.066,0,0,1,25.875,3.407a12.162,12.162,0,0,0,3.849-1.471,6.082,6.082,0,0,1-2.664,3.351,12.054,12.054,0,0,0,3.48-.954A12.311,12.311,0,0,1,27.515,7.472Z" transform="translate(-2 -0.497)" fill="#fff"/>
  </g>
</svg>
