<svg id="Layer_1" data-name="Layer 1" xmlns="http://www.w3.org/2000/svg" viewBox="0 0 160 76"><defs><style>.cls-1{fill:teal;}</style></defs><path class="cls-1" d="M57.67,35.46v0h0v0l-9.93-6.33-14.16-9s0,0,0,.05l-10-6.29c.22-.57.47-1.13.75-1.69H42.7a9.21,9.21,0,0,1,8.41,13L60.7,31.3A20.66,20.66,0,0,0,42.69.73H0V12.34L23,27s0,0,0,.05l10.34,6.6,5.5,3.5,3.89,2.48,3.18,2L54.2,47a9.61,9.61,0,0,1,4,8,9.22,9.22,0,0,1-8.7,9.2l-19-.12h-19v-19H41.71L34.44,40.5l-10.7-6.81H11.57v0H.12v0H0V45.15H.12v19H0V75.58H49.5a20.54,20.54,0,0,0,20-20.52C69.49,47.44,63.81,39,57.67,35.46Zm0,.12h0l0,0Z"/><path class="cls-1" d="M42.86,55.59h0Z"/><path class="cls-1" d="M78.77.31H94V1.8H80.39v8.89H92.65v1.49H80.39V22H78.77Z"/><path class="cls-1" d="M98.06.31h1.62V22H98.06Z"/><path class="cls-1" d="M105.09.31h9.11a8.53,8.53,0,0,1,6.1,2.14,5.69,5.69,0,0,1,1.65,4v.06c0,3.62-2.7,5.7-6.35,6.19L122.75,22h-2l-6.91-9h-7.09v9h-1.62ZM114,11.55c3.63,0,6.32-1.83,6.32-5V6.54c0-2.92-2.29-4.74-6.22-4.74h-7.4v9.76H114Z"/><path class="cls-1" d="M124.85,18.83l1.05-1.21a10.54,10.54,0,0,0,7.78,3.22c3.25,0,5.48-1.83,5.48-4.3v-.06c0-2.29-1.2-3.62-6.13-4.62-5.2-1-7.3-2.81-7.3-6.1V5.7c0-3.22,2.94-5.7,7-5.7a10.82,10.82,0,0,1,7.43,2.63l-1,1.27a9.33,9.33,0,0,0-6.47-2.44c-3.19,0-5.3,1.83-5.3,4.08V5.6c0,2.3,1.18,3.69,6.32,4.74s7.13,2.82,7.13,6v.06c0,3.49-3,5.91-7.19,5.91A12.27,12.27,0,0,1,124.85,18.83Z"/><path class="cls-1" d="M150.37,1.8h-7.56V.31h16.73V1.8H152V22h-1.62V1.8Z"/><path class="cls-1" d="M78.56,27.15h3.81V48.83H78.56Z"/><path class="cls-1" d="M86.92,27.15h9.66a8.77,8.77,0,0,1,6.26,2.16A6.59,6.59,0,0,1,104.63,34v.06c0,3.56-2.14,5.7-5.14,6.57l5.85,8.21h-4.52l-5.33-7.56H90.73v7.56H86.92ZM96.3,37.9c2.73,0,4.46-1.43,4.46-3.63v-.06c0-2.32-1.67-3.59-4.49-3.59H90.73V37.9Z"/><path class="cls-1" d="M115.75,27h3.53l9.54,21.84h-4l-2.19-5.24H112.35l-2.23,5.24h-3.9Zm5.45,13.22-3.75-8.67-3.71,8.67Z"/><path class="cls-1" d="M149.47,49.48l-2.59-2.33a11.46,11.46,0,0,1-6.6,2.05A11,11,0,0,1,129,38.05V38a11.33,11.33,0,0,1,22.66-.06V38a11.24,11.24,0,0,1-2.2,6.66l2.49,2.11Zm-5.39-4.81-3.75-3.19,2.45-2.78,3.81,3.46a8.15,8.15,0,0,0,1-4.11V38a7.42,7.42,0,0,0-7.37-7.71A7.32,7.32,0,0,0,133,37.93V38a7.41,7.41,0,0,0,7.38,7.68A7.31,7.31,0,0,0,144.08,44.67Z"/><path class="cls-1" d="M155.23,27.15H159V48.83h-3.81Z"/><path class="cls-1" d="M78.62,54h9.22a8,8,0,0,1,5.67,1.92,4.82,4.82,0,0,1,1.4,3.47v.06a5.24,5.24,0,0,1-3.44,5c2.57.77,4.65,2.26,4.65,5.23v.06c0,3.72-3.13,5.92-7.87,5.92H78.63V54Zm13.81,5.73c0-2.14-1.7-3.53-4.8-3.53H81v7.46h6.41c2.94,0,5-1.33,5-3.87v-.06Zm-4.55,6.1H81v7.65h7.27c3.28,0,5.33-1.45,5.33-3.87v-.06C93.64,67.17,91.66,65.81,87.88,65.81Z"/><path class="cls-1" d="M106.21,53.83h2.3l9.87,21.84h-2.63l-2.54-5.73h-11.8l-2.57,5.73H96.33Zm6,13.87-4.92-11-5,11Z"/><path class="cls-1" d="M119.87,54h2.29l13.66,17.38V54h2.38V75.66h-1.95l-14-17.78V75.66h-2.38Z"/><path class="cls-1" d="M141.54,54H144v13l12.45-13h3.16l-9.3,9.48,9.7,12.2h-3.06l-8.33-10.5L144,69.84v5.82h-2.45Z"/></svg>