<svg id="Layer_1" data-name="Layer 1" xmlns="http://www.w3.org/2000/svg" width="144.7" height="44.796" viewBox="0 0 144.7 44.796">
  <path id="Path_3304" data-name="Path 3304" d="M77.19,1.63V43.368h27.288V30.348H92.218V1.63Z" transform="translate(40.222 0.849)" fill="#fff" fill-rule="evenodd"/>
  <path id="Path_3306" data-name="Path 3306" d="M19.059,15.834H15.287v15.7h4.244a7.088,7.088,0,0,0,6.541-7.484C26.071,16.093,20.687,15.834,19.059,15.834Zm34.787,5.932-4.472-2.708L69.589,6.084,61.1,0,39.548,13.948S34.011,2.479,23.242,2.479H0V44.218H25.737c12.321,0,14.283-12.686,14.283-12.686L62.364,44.8,87.69,28.064V44.187h27.3V31.2h-12.26V2.479H87.705V15.7L66.091,29.235,62,26.741,82.518,13.827,74.533,8.457Z" fill="#fff" fill-rule="evenodd"/>
</svg>
