<svg id="Layer_2" data-name="Layer 2" xmlns="http://www.w3.org/2000/svg" width="205.599" height="44" viewBox="0 0 205.599 44">
  <g id="Layer_1" data-name="Layer 1">
    <path id="Path_3274" data-name="Path 3274" d="M0,0H20.888V20.888H0Z" fill="#f1511b"/>
    <path id="Path_3275" data-name="Path 3275" d="M16.47,0H37.442V20.888H16.47Z" transform="translate(6.558)" fill="#80cc28"/>
    <path id="Path_3276" data-name="Path 3276" d="M136.462,6.013a8.221,8.221,0,0,1,6.585-.769V9.117a4.32,4.32,0,0,0-3.328-.308,2.7,2.7,0,0,0-1.538,2.111A30.3,30.3,0,0,0,138.1,14.3h6.613V10.011c1.5-.419,2.978-.895,4.46-1.4v5.663h4.46v3.677c-1.5-.07-2.992,0-4.488,0v6.334c0,1.174,0,2.349.084,3.509a2.293,2.293,0,0,0,.979,1.8,3.37,3.37,0,0,0,3.425-.322v3.733a8.836,8.836,0,0,1-4.194.629A5.047,5.047,0,0,1,145.872,32,6.725,6.725,0,0,1,144.6,27.7V17.981h-6.418v15.24h-4.516V17.953H130.52V14.332h3.132a19.869,19.869,0,0,1,.308-4.824,6.18,6.18,0,0,1,2.559-3.481Z" transform="translate(51.967 1.943)" fill="#706d6e"/>
    <path id="Path_3277" data-name="Path 3277" d="M66.223,5.889a2.8,2.8,0,0,1,2.489.895,2.573,2.573,0,0,1,.322,2.936,2.8,2.8,0,0,1-3.006,1.258,2.545,2.545,0,0,1-2.1-2.517,2.615,2.615,0,0,1,2.293-2.573Z" transform="translate(25.454 2.333)" fill="#706d6e"/>
    <path id="Path_3278" data-name="Path 3278" d="M40.8,6.28h6.571q3.062,7.8,6.152,15.575c.517,1.3,1.007,2.615,1.552,3.915,2.643-6.5,5.313-12.975,7.914-19.476h6.334V32.649H64.75V12.32c-.084.14-.168.28-.238.419-2.615,6.641-5.271,13.255-7.872,19.9H53.4c-2.7-6.627-5.355-13.282-8.039-19.924,0-.126-.14-.266-.224-.391V32.635H40.8V6.28Z" transform="translate(16.245 2.5)" fill="#706d6e"/>
    <path id="Path_3279" data-name="Path 3279" d="M76.427,11.741a12.43,12.43,0,0,1,6.711,0,5.466,5.466,0,0,1,1.286.545v4.32a7.117,7.117,0,0,0-5.173-1.524A5.271,5.271,0,0,0,75.5,17.166,7.256,7.256,0,0,0,74.3,22.4,5.341,5.341,0,0,0,80.356,27.4a8.389,8.389,0,0,0,4.055-1.664v4.1a10.99,10.99,0,0,1-6.18,1.286,9.228,9.228,0,0,1-5.886-2.461,9.4,9.4,0,0,1-2.8-6.32,11.493,11.493,0,0,1,1.776-6.991,9.088,9.088,0,0,1,5.019-3.537Z" transform="translate(27.68 4.491)" fill="#706d6e"/>
    <path id="Path_3280" data-name="Path 3280" d="M111.272,11.444a11.926,11.926,0,0,1,6.25.657V16.3a7.956,7.956,0,0,0-4.74-1.4,2.447,2.447,0,0,0-2.167,1.188,1.971,1.971,0,0,0,.657,2.321c1.286.853,2.8,1.216,4.194,1.985a5.942,5.942,0,0,1,2.587,2.461,5.593,5.593,0,0,1-1.174,6.362,8.655,8.655,0,0,1-6.292,1.9A13.282,13.282,0,0,1,106,30.068V25.706a9.787,9.787,0,0,0,4.111,1.762,5.285,5.285,0,0,0,3.118-.28,1.818,1.818,0,0,0,.531-2.573,5.187,5.187,0,0,0-1.971-1.286,19.392,19.392,0,0,1-3.9-2,4.726,4.726,0,0,1-1.692-2.573,5.83,5.83,0,0,1,.629-4.5,6.753,6.753,0,0,1,4.5-2.8Z" transform="translate(42.204 4.495)" fill="#706d6e"/>
    <path id="Path_3281" data-name="Path 3281" d="M89.341,12.015a5.061,5.061,0,0,1,4.194-.35v4.516a4.81,4.81,0,0,0-3.062-.713,3.775,3.775,0,0,0-2.8,2.251,8.487,8.487,0,0,0-.643,3.859V30.61H82.56V11.735h4.46v3.314a5.844,5.844,0,0,1,2.335-2.964Z" transform="translate(32.872 4.525)" fill="#706d6e"/>
    <path id="Path_3282" data-name="Path 3282" d="M64.22,11.63h4.5V30.505h-4.5Z" transform="translate(25.57 4.631)" fill="#706d6e"/>
    <path id="Path_3283" data-name="Path 3283" d="M109.075,16.176a8.011,8.011,0,0,0-3.929-4,12.038,12.038,0,0,0-6.473-.755A8.962,8.962,0,0,0,92.731,14.6a10.137,10.137,0,0,0-2.083,5.774,10.836,10.836,0,0,0,1.65,6.991,8.543,8.543,0,0,0,5.229,3.412,12.947,12.947,0,0,0,5.285,0,8.739,8.739,0,0,0,5.131-3.1,10.039,10.039,0,0,0,2.027-5.593,12.388,12.388,0,0,0-.895-5.9Zm-4.362,8.7a4.194,4.194,0,0,1-2.223,2.181,6.054,6.054,0,0,1-3.691.154A4.488,4.488,0,0,1,96,24.873a8.7,8.7,0,0,1-.643-4.754,6.026,6.026,0,0,1,1.748-3.943A4.8,4.8,0,0,1,100.071,15a4.894,4.894,0,0,1,3.789,1.286,6.124,6.124,0,0,1,1.552,3.943,9.969,9.969,0,0,1-.7,4.642Z" transform="translate(36.068 4.488)" fill="#706d6e"/>
    <path id="Path_3285" data-name="Path 3285" d="M0,16.47H20.888V37.442H0Z" transform="translate(0 6.558)" fill="#00adef"/>
    <path id="Path_3286" data-name="Path 3286" d="M16.47,16.47H37.442V37.442H16.47Z" transform="translate(6.558 6.558)" fill="#fbbc09"/>
    <path id="Path_3287" data-name="Path 3287" d="M134.8,16.176a8.011,8.011,0,0,0-3.943-4,12.038,12.038,0,0,0-6.473-.755,8.99,8.99,0,0,0-5.942,3.174,10.137,10.137,0,0,0-2.083,5.774,10.766,10.766,0,0,0,1.664,6.991,8.515,8.515,0,0,0,5.215,3.412,12.947,12.947,0,0,0,5.285,0,8.7,8.7,0,0,0,5.187-3.1,10.053,10.053,0,0,0,2-5.593A12.4,12.4,0,0,0,134.8,16.176Zm-4.362,8.7a4.194,4.194,0,0,1-2.223,2.181,6.012,6.012,0,0,1-3.677.154,4.516,4.516,0,0,1-2.8-2.335,8.7,8.7,0,0,1-.685-4.726A6.026,6.026,0,0,1,122.8,16.2a4.81,4.81,0,0,1,2.978-1.174,4.866,4.866,0,0,1,3.775,1.286,6.068,6.068,0,0,1,1.566,3.943,9.969,9.969,0,0,1-.685,4.614Z" transform="translate(46.304 4.488)" fill="#706d6e"/>
  </g>
</svg>
