<?xml version="1.0" encoding="utf-8"?>
<!-- Generator: Adobe Illustrator 25.0.0, SVG Export Plug-In . SVG Version: 6.00 Build 0)  -->
<svg version="1.1" id="Layer_1" xmlns="http://www.w3.org/2000/svg" xmlns:xlink="http://www.w3.org/1999/xlink" x="0px" y="0px"
	 viewBox="0 0 546 256" style="enable-background:new 0 0 546 256;" xml:space="preserve">
<style type="text/css">
	.st0{fill:#FFFFFF;}
</style>
<path class="st0" d="M276.9,12.6h45v6.3h-37.7v22.3H318v6.3h-33.9v27.1h-7.3V12.6z"/>
<path class="st0" d="M335.9,12.6h7.3V75h-7.3V12.6z"/>
<path class="st0" d="M362.5,12.6h27.1c7.7,0,14,2.4,17.9,6.3c2.9,2.9,4.8,7.3,4.8,12.6c0,10.2-7.3,16.5-16.9,18.4l19.4,25.6h-8.7
	l-18.4-24.2h-17.9v24.2h-7.3V12.6z M388.7,44.5c9.2,0,16-4.8,16-13.1c0-7.7-5.8-12.6-16-12.6h-19.4v25.6H388.7z"/>
<path class="st0" d="M425,65.8l4.4-5.3c6.3,5.8,12.6,8.7,21.3,8.7c8.2,0,14-4.4,14-10.6c0-5.8-2.9-9.2-16.5-12.1
	c-14.5-2.9-20.8-7.7-20.8-17.9c0-9.7,8.7-16.9,20.8-16.9c9.2,0,15.5,2.4,21.8,7.7l-4.4,5.3c-5.8-4.8-11.6-6.8-17.9-6.8
	c-8.2,0-13.6,4.4-13.6,10.2c0,5.8,3.4,9.2,16.9,12.1c14.5,3.4,20.8,8.2,20.8,17.9c0,10.6-8.7,17.9-21.3,17.9
	C440.9,76,432.7,72.6,425,65.8z"/>
<path class="st0" d="M503.8,18.9H483v-6.3h49.4v6.3h-20.8V75h-7.3V18.9H503.8z"/>
<path class="st0" d="M276.9,96.8h13.6v62.4h-13.6V96.8z"/>
<path class="st0" d="M307.4,96.8h28.6c7.7,0,14,2.4,18.4,6.3c3.4,3.4,5.3,8.2,5.3,14.5c0,10.2-5.3,16.5-13.6,19.4l15.5,22.3h-16
	L332,139.4h-10.6v19.8h-14V96.8z M334.9,127.3c6.8,0,10.6-3.4,10.6-8.7c0-5.8-4.4-8.7-10.6-8.7h-13.6v17.9h13.6V127.3z"/>
<path class="st0" d="M396.4,96.3H409l26.6,62.9h-14.5l-5.8-14h-26.6l-5.8,14h-14L396.4,96.3z M410.9,133.1l-8.2-20.3l-8.2,20.3
	H410.9z"/>
<path class="st0" d="M496.6,161.1l-6.8-6.3c-5.3,3.4-11.6,5.3-18.4,5.3c-19.4,0-33.4-14.5-33.4-32.4c0-17.9,14-32.4,33.4-32.4
	s33.4,14.5,33.4,32.4c0,6.8-1.9,12.6-5.3,17.9l6.3,5.3L496.6,161.1z M479.6,146.1l-10.2-8.7l8.7-9.7l10.2,9.2c1-2.4,1.9-5.3,1.9-8.7
	c0-10.6-7.7-19.8-18.9-19.8s-18.9,8.7-18.9,19.4c0,10.6,7.7,19.8,18.9,19.8C474.3,148.1,477.2,147.1,479.6,146.1z"/>
<path class="st0" d="M518.4,96.8h13.6v62.4h-13.6V96.8z"/>
<path class="st0" d="M276.9,181.5h26.6c7.3,0,12.6,1.9,16.5,5.3c2.4,2.9,3.9,5.8,3.9,10.2c0,8.2-4.8,12.6-10.2,14.5
	c7.3,2.4,13.6,6.3,13.6,15c0,10.6-9.2,16.9-22.7,16.9h-28.1v-61.9H276.9z M302.5,209.5c8.7,0,14.5-3.9,14.5-11.1
	c0-6.3-4.8-10.2-14-10.2h-18.9V210h18.4V209.5z M304.9,237.6c9.7,0,15.5-4.4,15.5-11.1c0-6.8-5.8-10.6-16.5-10.6h-19.8v22.3h20.8
	V237.6z"/>
<path class="st0" d="M363,181h6.8l28.6,62.9h-7.7l-7.3-16.5h-33.9l-7.3,16.5h-7.3L363,181z M380.4,221.2l-14-31.9l-14.5,31.9H380.4z
	"/>
<path class="st0" d="M409.5,181.5h6.8l39.7,50.3v-50.3h6.3v62.4h-5.8l-40.7-51.3v51.3H409v-62.4H409.5z"/>
<path class="st0" d="M480.1,181.5h7.3v37.3l35.8-37.3h9.2l-26.6,27.6l28.1,35.3h-8.7l-24.2-30.5l-13.6,13.5v16.9h-7.3V181.5z"/>
<path class="st0" d="M197.5,124.9l-120-76.9h65.3c16.5,0,29.5,13.1,29.5,29.5c0,3.9-0.5,7.3-1.9,10.6l30,19.4
	c4.8-8.7,7.3-18.9,7.3-30c0-35.8-29-64.8-64.8-64.8H12.2v35.3l166.5,106.9c8.2,5.3,13.6,14.5,13.6,24.7c0,16.5-13.1,29.5-29.5,29.5
	H47.5v-59h92.9l-55.2-35.3H12.2v129.7h150.5c35.8,0,64.8-29,64.8-64.8C227.5,156.3,215.4,136.5,197.5,124.9z"/>
</svg>
