<svg xmlns="http://www.w3.org/2000/svg" width="166.002" height="29.92" viewBox="0 0 166.002 29.92">
  <g id="veeam" transform="translate(-0.003)">
    <path id="Path_3377" data-name="Path 3377" d="M30.43,1.048a2.661,2.661,0,0,0-3.677,1.237l-9.848,21.2h0c-.23.456-.428.769-.952.769s-.726-.313-.952-.769h0L5.158,2.281A2.664,2.664,0,0,0,1.481,1.044,2.95,2.95,0,0,0,.307,4.915L9.925,24.539l1.095,2.229a5.431,5.431,0,0,0,9.875,0l1.095-2.229L31.607,4.915A2.955,2.955,0,0,0,30.43,1.048Z" transform="translate(0 -0.437)" fill="#fff"/>
    <path id="Path_3378" data-name="Path 3378" d="M354.073.724a4.79,4.79,0,0,0-4.252,2.741c-2.5,5.1-9.86,20.29-9.891,20.342-.056.1-.21.448-.527.448-.3,0-.472-.333-.527-.452h0c-2.439-5.041-7.25-15-9.776-20.148A4.787,4.787,0,0,0,324.736.72h0a5.089,5.089,0,0,0-4.9,5.4V27a2.906,2.906,0,0,0,1.84,2.812c1.816.595,3.375-.992,3.375-2.867l-.381-20.346a.185.185,0,0,1,.349-.1L335.06,26.825a4.587,4.587,0,0,0,8.686,0L353.8,6.495a.191.191,0,0,1,.361.107l-.385,20.461a2.736,2.736,0,0,0,2.689,2.871,2.85,2.85,0,0,0,2.526-2.994V6.13A5.082,5.082,0,0,0,354.073.724Z" transform="translate(-192.982 -0.434)" fill="#fff"/>
    <path id="Path_3379" data-name="Path 3379" d="M262.263,25.676,251.194,3.839A5.506,5.506,0,0,0,246.268.69a5.36,5.36,0,0,0-3.5,1.3,5.76,5.76,0,0,0-1.432,1.848L230.321,25.577c-.012.024-.02.048-.032.067l-.016.032a3.007,3.007,0,0,0,.218,3.066c.016.024.032.044.048.067a.871.871,0,0,0,.056.071,2.616,2.616,0,0,0,3.593.555.219.219,0,0,0,.032-.024c.06-.044.119-.087.175-.135s.091-.083.135-.127c.02-.02.04-.036.059-.056a2.777,2.777,0,0,0,.5-.706l.409-.865,2.3-4.831a.347.347,0,0,1,.309-.2h10.177a2.6,2.6,0,0,0,0-5.2h-7.6a.237.237,0,0,1-.206-.329l.567-1.2,4.16-8.384.016-.036.024-.048h0c.067-.139.29-.738.694-.861a1.122,1.122,0,0,1,.615-.012c.42.127.611.646.793,1.027h0L257.445,28.4a2.719,2.719,0,0,0,2.411,1.523,2.634,2.634,0,0,0,.928-.175c.02-.008.04-.012.056-.02a2.224,2.224,0,0,0,.218-.107.492.492,0,0,0,.079-.04c.016-.008.028-.02.044-.028a.514.514,0,0,0,.063-.036c.032-.02.059-.044.091-.063s.052-.036.075-.056c.04-.032.079-.059.119-.091s.087-.075.131-.115a.238.238,0,0,0,.032-.032A3,3,0,0,0,262.263,25.676Z" transform="translate(-138.751 -0.416)" fill="#fff"/>
    <g id="Group_2696" data-name="Group 2696" transform="translate(32.067)">
      <path id="Path_3380" data-name="Path 3380" d="M86.64,18.057h18.629a3.277,3.277,0,0,0,3.236-3.5C108.509,6.532,102.3,0,94.676,0S80.85,6.532,80.85,14.563c0,.182.012.69.012.765-.012,9.17,5.882,14.1,13.679,14.559.373.02.738.032,1.095.032a14.7,14.7,0,0,0,8.277-2.514,10.131,10.131,0,0,0,2.5-2.356,2.889,2.889,0,0,0,0-3.772c-1.4-1.293-2.84-.595-4.125.5-2.019,1.717-3.581,3.058-7.607,3.062a8,8,0,0,1-8.237-6.492A.221.221,0,0,1,86.64,18.057Zm-.206-5.374c.52-4.2,3.411-7.932,8.234-7.932s7.877,3.653,8.36,7.932a.257.257,0,0,1-.234.3H86.668A.252.252,0,0,1,86.434,12.683Z" transform="translate(-80.85)" fill="#fff"/>
    </g>
    <g id="Group_2697" data-name="Group 2697" transform="translate(62.709)">
      <path id="Path_3381" data-name="Path 3381" d="M163.9,18.057h18.629a3.277,3.277,0,0,0,3.236-3.5C185.769,6.532,179.562,0,171.94,0s-13.83,6.532-13.83,14.563c0,.182.012.69.012.765C158.11,24.5,164,29.432,171.8,29.888c.373.02.738.032,1.095.032a14.7,14.7,0,0,0,8.277-2.514,10.131,10.131,0,0,0,2.5-2.356,2.888,2.888,0,0,0,0-3.772c-1.4-1.293-2.84-.595-4.125.5-2.019,1.717-3.581,3.058-7.607,3.062a8,8,0,0,1-8.238-6.492A.222.222,0,0,1,163.9,18.057Zm-.21-5.374c.52-4.2,3.411-7.932,8.234-7.932s7.877,3.653,8.36,7.932a.257.257,0,0,1-.234.3h-16.13A.252.252,0,0,1,163.694,12.683Z" transform="translate(-158.11)" fill="#fff"/>
    </g>
  </g>
</svg>
